<?xml version="1.0" encoding="UTF-8"?>
<svg version="1.1" xmlns="http://www.w3.org/2000/svg" width="451" height="414">
<path d="M0 0 C148.83 0 297.66 0 451 0 C451 136.62 451 273.24 451 414 C302.17 414 153.34 414 0 414 C0 277.38 0 140.76 0 0 Z " fill="#101011" transform="translate(0,0)"/>
<path d="M0 0 C148.83 0 297.66 0 451 0 C451 136.62 451 273.24 451 414 C302.17 414 153.34 414 0 414 C0 277.38 0 140.76 0 0 Z M162 29 C161.17806152 29.29922363 160.35612305 29.59844727 159.50927734 29.90673828 C112.2221212 47.28654944 74.99399043 82.96210457 53.27539062 128.18798828 C37.60443917 162.73967642 32.50591363 204.82298431 41 242 C41.29003906 243.3303125 41.29003906 243.3303125 41.5859375 244.6875 C47.62237906 271.81422504 58.88928582 297.04762652 76 319 C76.40766602 319.52335937 76.81533203 320.04671875 77.23535156 320.5859375 C107.11469489 358.38765589 147.82627331 382.06800341 195 391 C195.70850098 391.13567383 196.41700195 391.27134766 197.14697266 391.41113281 C224.98415922 396.48022808 255.11464428 393.22416585 282 385 C282.76006348 384.77441406 283.52012695 384.54882812 284.30322266 384.31640625 C294.84186441 381.16216471 304.56883213 377.12824369 314.26025391 371.92871094 C315.81201063 371.10035245 317.37966947 370.30194207 318.94921875 369.5078125 C338.34953846 359.48195385 357.34852049 344.02575114 370.76953125 326.80078125 C372.58106335 324.5260553 374.44468688 322.38681459 376.390625 320.23046875 C380.03877602 316.08322533 383.02911575 311.68702539 385.9375 307 C386.45473633 306.16968262 386.97197266 305.33936523 387.50488281 304.48388672 C399.01922382 285.74352647 407.39120799 265.53208118 412 244 C412.21269531 243.05769531 412.42539062 242.11539063 412.64453125 241.14453125 C414.54153393 232.34189291 415.15392778 223.4837502 415.2734375 214.49609375 C415.28605621 213.62326248 415.29867493 212.75043121 415.31167603 211.85115051 C415.53470583 192.72480625 415.55574367 174.47796782 410 156 C409.70528809 155.01708984 409.41057617 154.03417969 409.10693359 153.02148438 C398.83098198 119.78361695 380.37871689 87.17257717 353 65 C351.98292969 64.16855469 350.96585937 63.33710937 349.91796875 62.48046875 C346.33165806 59.58270501 342.68517559 56.77070609 339 54 C338.43990234 53.5781543 337.87980469 53.15630859 337.30273438 52.72167969 C309.45766321 32.12417992 272.29627753 19.12224865 237.6015625 18.76171875 C236.81741974 18.7519249 236.03327698 18.74213104 235.22537231 18.73204041 C209.83007268 18.48057546 186.03340351 20.06262543 162 29 Z " fill="#FAFAFA" transform="translate(0,0)"/>
<path d="M0 0 C2.64 0 5.28 0 8 0 C8.06058594 0.84304687 8.12117187 1.68609375 8.18359375 2.5546875 C8.26738281 3.65039062 8.35117188 4.74609375 8.4375 5.875 C8.51871094 6.96554688 8.59992188 8.05609375 8.68359375 9.1796875 C8.83001703 11.94728971 8.83001703 11.94728971 10 14 C10.21691392 15.37206521 10.38923163 16.75139272 10.53515625 18.1328125 C10.62216797 18.93847656 10.70917969 19.74414062 10.79882812 20.57421875 C10.88583984 21.41597656 10.97285156 22.25773437 11.0625 23.125 C11.15337891 23.97449219 11.24425781 24.82398438 11.33789062 25.69921875 C11.5620368 27.7991145 11.78146448 29.89951293 12 32 C13.65 31.67 15.3 31.34 17 31 C17 20.77 17 10.54 17 0 C30.2 0 43.4 0 57 0 C57 9.24 57 18.48 57 28 C50.565 29.485 50.565 29.485 44 31 C44 32.32 44 33.64 44 35 C43.195625 35.20625 42.39125 35.4125 41.5625 35.625 C40.716875 36.07875 39.87125 36.5325 39 37 C38.2984815 40.04166843 38.2984815 40.04166843 38 43 C38.85722656 42.73445313 39.71445313 42.46890625 40.59765625 42.1953125 C41.74105469 41.84210938 42.88445312 41.48890625 44.0625 41.125 C45.18785156 40.77695313 46.31320313 40.42890625 47.47265625 40.0703125 C48.63667969 39.71710938 49.80070312 39.36390625 51 39 C52.01731201 38.65267822 53.03462402 38.30535645 54.08276367 37.94750977 C58.75830876 36.62384474 63.37608288 36.73170318 68.203125 36.76953125 C69.16273132 36.76998947 70.12233765 36.77044769 71.11102295 36.7709198 C73.12806443 36.7739274 75.1451039 36.78176867 77.16210938 36.79418945 C80.25398952 36.81252366 83.34557098 36.81469836 86.4375 36.81445312 C88.40104426 36.81936609 90.3645865 36.82519344 92.328125 36.83203125 C93.25312805 36.83314407 94.1781311 36.8342569 95.13116455 36.83540344 C95.9892572 36.84178329 96.84734985 36.84816315 97.73144531 36.85473633 C98.48532532 36.85854813 99.23920532 36.86235992 100.01593018 36.86628723 C102 37 102 37 105 38 C107.33299825 38.03954234 109.66708189 38.04401732 112 38 C112 36.68 112 35.36 112 34 C108.48310518 31.31060984 105.31623323 30.43874441 101 29 C101 19.43 101 9.86 101 0 C114.2 0 127.4 0 141 0 C141 8.41621555 140.95876222 16.41437885 140.26757812 24.73242188 C140.03405404 27.86787187 139.99251435 29.97754304 141 33 C144.16115776 31.63016497 144.9927092 31.0109362 147 28 C147.6265284 26.02119189 147.6265284 26.02119189 148.0625 23.9375 C148.55601159 21.74728742 148.99256926 20.01486148 150 18 C150.15004973 16.6265365 150.24838006 15.2471474 150.31640625 13.8671875 C150.35830078 13.06152344 150.40019531 12.25585938 150.44335938 11.42578125 C150.48267578 10.58402344 150.52199219 9.74226562 150.5625 8.875 C150.62727539 7.60076172 150.62727539 7.60076172 150.69335938 6.30078125 C150.79954236 4.20071777 150.90028497 2.10038052 151 0 C153.64 0 156.28 0 159 0 C159.07688183 7.39739218 159.12894407 14.7946791 159.16479492 22.19238281 C159.17976106 24.7021876 159.20014122 27.21196679 159.22631836 29.72167969 C159.49521473 56.18951829 157.45146826 78.16258041 138.640625 98.34375 C123.59671143 113.47668081 99.68314967 132.67493817 78 136 C74.77374468 135.15592596 71.94886537 133.72440227 69 132.1875 C68.16766846 131.77169678 67.33533691 131.35589355 66.4777832 130.92749023 C41.51661099 118.26422646 12.85727858 100.68811703 3 73 C0.30862415 63.78896616 -0.41181801 55.16423478 -0.29296875 45.60546875 C-0.28872391 44.29210037 -0.28447906 42.97873199 -0.28010559 41.62556458 C-0.26880515 38.18140626 -0.23947158 34.7376447 -0.20599365 31.29364014 C-0.17496772 27.76026777 -0.16153176 24.22682951 -0.14648438 20.69335938 C-0.11458273 13.79541283 -0.06357284 6.89772561 0 0 Z " fill="#0F6CAE" transform="translate(148,208)"/>
<path d="M0 0 C0.8559375 -0.00257812 1.711875 -0.00515625 2.59375 -0.0078125 C3.90859375 0.00378906 3.90859375 0.00378906 5.25 0.015625 C6.1265625 0.00789063 7.003125 0.00015625 7.90625 -0.0078125 C9.19015625 -0.00394531 9.19015625 -0.00394531 10.5 0 C11.26828125 0.00225586 12.0365625 0.00451172 12.828125 0.00683594 C15.25 0.265625 15.25 0.265625 21.25 2.265625 C21.25 27.015625 21.25 51.765625 21.25 77.265625 C45.01 77.265625 68.77 77.265625 93.25 77.265625 C93.25 85.185625 93.25 93.105625 93.25 101.265625 C90.00192505 101.28749878 90.00192505 101.28749878 86.68823242 101.30981445 C79.53952167 101.36011679 72.39102975 101.42670391 65.24253368 101.50133991 C60.90772034 101.54609705 56.57300214 101.58534116 52.23803711 101.61206055 C48.05573993 101.63804055 43.87380785 101.6784047 39.69173622 101.72881126 C38.09496916 101.74551603 36.4981389 101.75700779 34.90129662 101.76323891 C32.66712402 101.77284117 30.43389309 101.80085162 28.19995117 101.83325195 C26.92754074 101.84435501 25.65513031 101.85545807 24.34416199 101.86689758 C21.29484591 102.01964291 21.29484591 102.01964291 19.34265137 103.58203125 C17.51424679 106.39929814 17.7677277 109.52229282 17.73828125 112.77734375 C17.72033005 113.50556839 17.70237885 114.23379303 17.68388367 114.98408508 C17.62975787 117.30703971 17.5958792 119.62978866 17.5625 121.953125 C17.52932875 123.52932551 17.49483927 125.10549888 17.45898438 126.68164062 C17.37154973 130.54299866 17.31150686 134.40341854 17.25 138.265625 C9.33 138.265625 1.41 138.265625 -6.75 138.265625 C-6.78738281 136.00203125 -6.82476562 133.7384375 -6.86328125 131.40625 C-6.90952262 129.20856181 -6.96074652 127.0110422 -7.01245117 124.81347656 C-7.0456588 123.2888416 -7.07370378 121.76408494 -7.09643555 120.23925781 C-7.13005958 118.04439546 -7.18237542 115.85064412 -7.23828125 113.65625 C-7.27755737 111.6767334 -7.27755737 111.6767334 -7.31762695 109.65722656 C-7.78581302 105.98470208 -8.11070064 104.78702158 -10.75 102.265625 C-13.95507105 101.64398738 -13.95507105 101.64398738 -17.69995117 101.71972656 C-18.40264633 101.70938889 -19.10534149 101.69905121 -19.82933044 101.68840027 C-22.15077552 101.65891452 -24.47135094 101.65747198 -26.79296875 101.65625 C-28.40295582 101.64127213 -30.0129275 101.6245458 -31.62287903 101.60614014 C-35.85941259 101.56240972 -40.0957389 101.54245512 -44.3324585 101.52740479 C-48.65600876 101.50785404 -52.97933451 101.46588185 -57.30273438 101.42578125 C-65.78512509 101.35041735 -74.2673534 101.30223575 -82.75 101.265625 C-82.75 93.675625 -82.75 86.085625 -82.75 78.265625 C-58.99 78.265625 -35.23 78.265625 -10.75 78.265625 C-10.75 53.185625 -10.75 28.105625 -10.75 2.265625 C-3.98825645 0.01171048 -3.98825645 0.01171048 0 0 Z " fill="#0F6CAE" transform="translate(221.75,96.734375)"/>
<path d="M0 0 C0.33 0 0.66 0 1 0 C1.06058594 0.84304687 1.12117187 1.68609375 1.18359375 2.5546875 C1.26738281 3.65039062 1.35117188 4.74609375 1.4375 5.875 C1.51871094 6.96554688 1.59992188 8.05609375 1.68359375 9.1796875 C1.83001703 11.94728971 1.83001703 11.94728971 3 14 C3.21691392 15.37206521 3.38923163 16.75139272 3.53515625 18.1328125 C3.62216797 18.93847656 3.70917969 19.74414062 3.79882812 20.57421875 C3.88583984 21.41597656 3.97285156 22.25773437 4.0625 23.125 C4.15337891 23.97449219 4.24425781 24.82398438 4.33789062 25.69921875 C4.5620368 27.7991145 4.78146448 29.89951293 5 32 C6.65 31.67 8.3 31.34 10 31 C10 20.77 10 10.54 10 0 C23.2 0 36.4 0 50 0 C50 9.24 50 18.48 50 28 C43.565 29.485 43.565 29.485 37 31 C37 32.32 37 33.64 37 35 C36.195625 35.20625 35.39125 35.4125 34.5625 35.625 C33.716875 36.07875 32.87125 36.5325 32 37 C31.2984815 40.04166843 31.2984815 40.04166843 31 43 C32.28583984 42.60167969 32.28583984 42.60167969 33.59765625 42.1953125 C34.74105469 41.84210938 35.88445312 41.48890625 37.0625 41.125 C38.18785156 40.77695313 39.31320313 40.42890625 40.47265625 40.0703125 C41.63667969 39.71710938 42.80070312 39.36390625 44 39 C45.01731201 38.65267822 46.03462402 38.30535645 47.08276367 37.94750977 C51.75830876 36.62384474 56.37608288 36.73170318 61.203125 36.76953125 C62.16273132 36.76998947 63.12233765 36.77044769 64.11102295 36.7709198 C66.12806443 36.7739274 68.1451039 36.78176867 70.16210938 36.79418945 C73.25398952 36.81252366 76.34557098 36.81469836 79.4375 36.81445312 C81.40104426 36.81936609 83.3645865 36.82519344 85.328125 36.83203125 C86.25312805 36.83314407 87.1781311 36.8342569 88.13116455 36.83540344 C88.9892572 36.84178329 89.84734985 36.84816315 90.73144531 36.85473633 C91.48532532 36.85854813 92.23920532 36.86235992 93.01593018 36.86628723 C95 37 95 37 98 38 C100.33299825 38.03954234 102.66708189 38.04401732 105 38 C105 36.68 105 35.36 105 34 C101.48310518 31.31060984 98.31623323 30.43874441 94 29 C94 19.43 94 9.86 94 0 C107.2 0 120.4 0 134 0 C134 8.41621555 133.95876222 16.41437885 133.26757812 24.73242188 C133.03405404 27.86787187 132.99251435 29.97754304 134 33 C137.16115776 31.63016497 137.9927092 31.0109362 140 28 C140.66158043 25.95415921 140.66158043 25.95415921 141.125 23.8125 C141.41375 22.554375 141.7025 21.29625 142 20 C143.96039445 25.93526319 141.17118801 31.4543884 138.671875 36.88671875 C136.39493239 41.27882121 134.3079565 44.97490315 130.5625 48.25 C127.57726323 50.81569797 127.57726323 50.81569797 128.0625 54.625 C128.55374738 56.39349058 129.04523175 58.16191656 129.5390625 59.9296875 C130.03445559 62.15475814 130.23838297 64.22187653 130.3125 66.5 C130.34988281 67.2528125 130.38726562 68.005625 130.42578125 68.78125 C129.8137951 71.97031544 128.58311507 73.08086973 126 75 C113.2610847 77.40623956 102.42477416 71.98885156 91.85546875 65.6171875 C82.47403654 60.30403711 71.64183069 59.35135539 61.12109375 61.62109375 C54.8993524 63.70737065 49.15044172 66.91614205 43.4765625 70.18164062 C36.94099043 73.86055809 30.70716991 75.28573961 23.1875 75.3125 C22.08792969 75.32925781 20.98835938 75.34601563 19.85546875 75.36328125 C17 75 17 75 15.13671875 73.76171875 C12.84132396 70.20425123 13.56618077 66.06010307 14 62 C14.81742554 58.26990874 15.83847865 54.63666802 17 51 C15.515 50.505 15.515 50.505 14 50 C1.28171039 35.89535655 -0.40706423 18.02389968 0 0 Z " fill="#0D1215" transform="translate(155,208)"/>
<path d="M0 0 C0 21.12 0 42.24 0 64 C-16.83 64 -33.66 64 -51 64 C-50.29461456 57.65153107 -49.54104604 52.54821108 -47.4375 46.6875 C-47.17428955 45.95329834 -46.9110791 45.21909668 -46.63989258 44.46264648 C-40.69481195 28.69346215 -19.3456805 0 0 0 Z " fill="#0F6AAC" transform="translate(201,102)"/>
<path d="M0 0 C18.33616864 6.11205621 34.11034006 19.76754937 43.1484375 36.88671875 C47.47816057 45.64985763 51 54.1461269 51 64 C34.17 64 17.34 64 0 64 C0 42.88 0 21.76 0 0 Z " fill="#0F6AAC" transform="translate(253,102)"/>
<path d="M0 0 C13.5055714 10.6919107 21.26735788 24.52609936 23.3203125 41.67578125 C23.94091547 55.63934815 18.51239987 70.29632836 9.41113281 80.84082031 C4.98763595 85.62182233 0.4331713 90.3778858 -5 94 C-5.99 94 -6.98 94 -8 94 C-8.27972656 92.93523437 -8.55945313 91.87046875 -8.84765625 90.7734375 C-11.25044286 81.96219965 -14.14274511 74.01224639 -18.44921875 65.953125 C-19.82077184 63.34130099 -20.9630552 60.75837532 -22 58 C-21.40832031 57.55269531 -20.81664062 57.10539062 -20.20703125 56.64453125 C-10.05447287 48.87691318 -0.93919145 40.21279601 1 27 C1.55002704 17.94696232 1.27337309 8.97522644 0 0 Z " fill="#0F6CAE" transform="translate(321,65)"/>
<path d="M0 0 C1.1251795 3.37553851 0.75117318 4.60769685 0 8 C-1.21776715 23.13268374 -0.47521527 36.04992662 9.39453125 48.25390625 C13.40565676 52.61637122 17.78749146 56.15681352 23 59 C21.65679363 62.61419447 19.98916885 65.96652969 18.18164062 69.36914062 C13.7795404 77.72580778 11.01578288 85.76983628 9 95 C1.03091334 93.98118507 -4.14466671 87.2256828 -9.125 81.375 C-18.58292925 69.06077612 -23.31027505 55.55423281 -22 40 C-19.81238231 24.09005319 -11.41280015 11.05163558 0 0 Z " fill="#0F6CAF" transform="translate(132,64)"/>
<path d="M0 0 C2.01802145 -0.01650006 4.0359859 -0.04371069 6.05371094 -0.08203125 C19.7853727 -0.34092806 31.24984715 -0.55048629 41.9831543 9.16259766 C47.21872707 14.95329353 49.83706287 20.59700058 50.4831543 28.35009766 C44.02143455 28.7818384 40.213632 27.72136083 34.6081543 24.60009766 C33.2112529 23.86150798 31.81281411 23.12581857 30.4128418 22.39306641 C29.74220703 22.03905762 29.07157227 21.68504883 28.38061523 21.3203125 C15.80710256 14.89119009 0.42396621 12.48092733 -13.43481445 16.22119141 C-19.99649065 18.65884213 -25.88406906 22.21229784 -31.8527832 25.83447266 C-36.45196801 28.45101768 -40.18371561 29.35009766 -45.5168457 29.35009766 C-44.29757366 19.28059234 -40.28302804 11.918871 -32.30981445 5.56494141 C-22.59870004 -1.01492043 -11.20073741 0.06694569 0 0 Z " fill="#116AAB" transform="translate(224.516845703125,244.64990234375)"/>
<path d="M0 0 C13.2 0 26.4 0 40 0 C40 30.25106838 40 30.25106838 29.125 41.25 C28.42375 41.8275 27.7225 42.405 27 43 C26.46632813 42.48050781 25.93265625 41.96101563 25.3828125 41.42578125 C17.45133804 34.00203093 10.56271145 30.64067786 0 28 C0 18.76 0 9.52 0 0 Z " fill="#106BAC" transform="translate(249,208)"/>
<path d="M0 0 C13.2 0 26.4 0 40 0 C40 9.24 40 18.48 40 28 C33.565 29.98 33.565 29.98 27 32 C23.43758363 34.26699224 20.25598826 36.39157818 17 39 C15.96875 39.804375 14.9375 40.60875 13.875 41.4375 C13.25625 41.953125 12.6375 42.46875 12 43 C0.7970527 30.25712868 0 16.64284347 0 0 Z " fill="#106BAC" transform="translate(165,208)"/>
<path d="M0 0 C0.86367187 -0.00257812 1.72734375 -0.00515625 2.6171875 -0.0078125 C3.50664062 -0.00007813 4.39609375 0.00765625 5.3125 0.015625 C6.64667969 0.00402344 6.64667969 0.00402344 8.0078125 -0.0078125 C8.87148437 -0.00523438 9.73515625 -0.00265625 10.625 0 C11.40488281 0.00225586 12.18476563 0.00451172 12.98828125 0.00683594 C15.3125 0.265625 15.3125 0.265625 20.3125 2.265625 C20.3125 14.805625 20.3125 27.345625 20.3125 40.265625 C16.23882656 39.68367165 12.3146229 39.11456016 8.3125 38.265625 C9.47637606 30.41973112 11.09845358 22.88007487 13.3125 15.265625 C12.79079224 16.0380957 12.79079224 16.0380957 12.25854492 16.82617188 C10.68279737 19.14661305 9.09169945 21.4561003 7.5 23.765625 C6.95279297 24.57644531 6.40558594 25.38726562 5.84179688 26.22265625 C5.31005859 26.98964844 4.77832031 27.75664063 4.23046875 28.546875 C3.74344482 29.25908203 3.2564209 29.97128906 2.75463867 30.70507812 C2.27873291 31.22005859 1.80282715 31.73503906 1.3125 32.265625 C0.3225 32.265625 -0.6675 32.265625 -1.6875 32.265625 C-1.6875 32.925625 -1.6875 33.585625 -1.6875 34.265625 C-3.1725 34.760625 -3.1725 34.760625 -4.6875 35.265625 C-6.40317661 38.76857371 -6.40317661 38.76857371 -7.6875 42.265625 C-8.3475 41.935625 -9.0075 41.605625 -9.6875 41.265625 C-9.6875 28.395625 -9.6875 15.525625 -9.6875 2.265625 C-5.61699754 0.63742402 -4.0419091 0.01169147 0 0 Z " fill="#0F6BAD" transform="translate(221.6875,96.734375)"/>
<path d="M0 0 C1.42385188 2.84770376 0.50780712 4.22068604 -0.43359375 7.2265625 C-0.9121582 8.7734375 -0.9121582 8.7734375 -1.40039062 10.3515625 C-1.74263672 11.43179688 -2.08488281 12.51203125 -2.4375 13.625 C-2.77587891 14.71296875 -3.11425781 15.8009375 -3.46289062 16.921875 C-4.30204702 19.61663074 -5.15019091 22.30858467 -6 25 C-0.06 25.99 -0.06 25.99 6 27 C2.16098144 32.85450331 -1.82602344 38.55710423 -5.96484375 44.203125 C-9.03770249 48.42609402 -12.02200398 52.70982448 -15 57 C-16.33459401 52.99621796 -15.00270481 50.42101645 -13.625 46.625 C-12.13054184 42.42081 -10.87981597 38.39907987 -10 34 C-13.96 33.67 -17.92 33.34 -22 33 C-20.52317517 29.30793793 -19.38048619 26.83495472 -17.20703125 23.671875 C-16.65853516 22.87136719 -16.11003906 22.07085937 -15.54492188 21.24609375 C-14.97322266 20.42238281 -14.40152344 19.59867188 -13.8125 18.75 C-13.26013672 17.94175781 -12.70777344 17.13351563 -12.13867188 16.30078125 C-8.28663259 10.70838972 -4.22368109 5.31652165 0 0 Z " fill="#0E1114" transform="translate(235,111)"/>
<path d="M0 0 C23.76 0 47.52 0 72 0 C72 7.59 72 15.18 72 23 C71.67 23 71.34 23 71 23 C71 16.07 71 9.14 71 2 C68.36 2.33 65.72 2.66 63 3 C62.34 4.65 61.68 6.3 61 8 C61.66 8.33 62.32 8.66 63 9 C61.125 14.875 61.125 14.875 60 16 C58.00041636 16.04080783 55.99954746 16.04254356 54 16 C52.8125 13.9375 52.8125 13.9375 52 11 C52.72126742 8.45187276 53.78708927 6.37917104 55 4 C52.27795104 3.09265035 50.75300417 2.88174237 47.96264648 2.90234375 C46.75009438 2.90729858 46.75009438 2.90729858 45.51304626 2.91235352 C44.20527977 2.92480103 44.20527977 2.92480103 42.87109375 2.9375 C41.96682144 2.94128662 41.06254913 2.94507324 40.13087463 2.94897461 C36.26517144 2.96528129 32.39957434 2.99320489 28.53393555 3.02050781 C25.70882673 3.03876066 22.883736 3.05075675 20.05859375 3.0625 C18.77208168 3.07494751 18.77208168 3.07494751 17.45957947 3.08764648 C11.58228936 3.11102464 5.83591268 2.68913153 0 2 C0 1.34 0 0.68 0 0 Z " fill="#145C8F" transform="translate(243,174)"/>
<path d="M0 0 C1.27617187 -0.02416992 1.27617187 -0.02416992 2.578125 -0.04882812 C7.36038979 -0.05255263 10.81455484 0.07285027 14.625 3.3125 C15.125 5.875 15.125 5.875 14.625 8.3125 C10.04028877 11.36897416 5.45419443 10.64134838 0.0625 10.625 C-1.53754883 10.64916992 -1.53754883 10.64916992 -3.16992188 10.67382812 C-4.18763672 10.67447266 -5.20535156 10.67511719 -6.25390625 10.67578125 C-7.1879126 10.67876221 -8.12191895 10.68174316 -9.08422852 10.68481445 C-9.84018311 10.56195068 -10.5961377 10.43908691 -11.375 10.3125 C-13.375 7.3125 -13.375 7.3125 -13.1875 4.75 C-11.18983079 -1.24300764 -5.20058742 -0.01952172 0 0 Z " fill="#0F1012" transform="translate(226.375,275.6875)"/>
<path d="M0 0 C0 0.66 0 1.32 0 2 C-1.66666667 3 -3.33333333 4 -5 5 C-8.8359041 8.44444695 -8.8359041 8.44444695 -11 13 C-9.35 12.67 -7.7 12.34 -6 12 C-5.67 11.01 -5.34 10.02 -5 9 C-3.1102097 8.46005991 -1.21212385 7.93925228 0.7109375 7.53344727 C2.95149631 7.01130339 4.9782495 6.28469942 7.125 5.46484375 C12.28696475 3.72188405 17.08688902 3.51916359 22.5 3.5625 C23.82837891 3.5325293 23.82837891 3.5325293 25.18359375 3.50195312 C31.33370938 3.50646863 36.8197995 4.48220274 42 8 C42.495 9.485 42.495 9.485 43 11 C42.38125 10.731875 41.7625 10.46375 41.125 10.1875 C40.09375 9.795625 39.0625 9.40375 38 9 C37.3296875 8.73574219 36.659375 8.47148437 35.96875 8.19921875 C25.85181556 4.64143014 14.84096579 4.44949404 4.88671875 8.5859375 C0.67787301 10.64764543 -3.46106885 12.84361782 -7.5234375 15.18164062 C-14.10130557 18.88436679 -20.30455563 20.28562562 -27.875 20.25 C-28.98617187 20.25515625 -30.09734375 20.2603125 -31.2421875 20.265625 C-34 20 -34 20 -36 18 C-35.11957031 18.02320313 -34.23914063 18.04640625 -33.33203125 18.0703125 C-31.58986328 18.09738281 -31.58986328 18.09738281 -29.8125 18.125 C-28.66394531 18.14820313 -27.51539063 18.17140625 -26.33203125 18.1953125 C-23.08259628 18.00484152 -20.91339479 17.39360127 -18 16 C-18 15.01 -18 14.02 -18 13 C-22.25731568 12.59250325 -22.25731568 12.59250325 -25.875 14.5 C-26.24625 14.995 -26.6175 15.49 -27 16 C-27.94238698 13.17283905 -28.13465647 11.36823877 -28.125 8.4375 C-28.12757813 7.65246094 -28.13015625 6.86742187 -28.1328125 6.05859375 C-28 4 -28 4 -27 2 C-26.34 2.33 -25.68 2.66 -25 3 C-25.66 5.64 -26.32 8.28 -27 11 C-18.66726879 8.83617786 -11.65657373 5.98878026 -4.36328125 1.390625 C-2 0 -2 0 0 0 Z " fill="#061725" transform="translate(206,263)"/>
<path d="M0 0 C2.64 0 5.28 0 8 0 C8.07688183 7.39739218 8.12894407 14.7946791 8.16479492 22.19238281 C8.17976106 24.7021876 8.20014122 27.21196679 8.22631836 29.72167969 C8.56436165 62.9957448 8.56436165 62.9957448 2 78 C0.49056522 74.09225099 1.60281746 71.49789547 2.89941406 67.62841797 C5.10686025 60.27536889 5.60152894 53.58563537 5.609375 45.9453125 C5.62591125 44.67775116 5.64244751 43.41018982 5.65948486 42.10421753 C5.6993984 38.78675697 5.7230192 35.46974696 5.73822021 32.15209961 C5.75801487 28.7457777 5.79995667 25.33972913 5.83984375 21.93359375 C5.91327461 15.28913044 5.96517183 8.64477194 6 2 C5.01 2 4.02 2 3 2 C1.66496577 6.83235311 1.65775969 11.73073075 1.48242188 16.71289062 C1.28817018 20.88013927 0.8730762 24.18559787 -1 28 C-1.85025773 25.54369988 -2.00438705 24.02569561 -1.5625 21.4375 C-0.86393516 17.16849266 -0.64746662 12.94136298 -0.4375 8.625 C-0.39431641 7.79355469 -0.35113281 6.96210938 -0.30664062 6.10546875 C-0.20138195 4.07046772 -0.10026928 2.03525297 0 0 Z " fill="#175C8D" transform="translate(299,208)"/>
<path d="M0 0 C1.98 0 3.96 0 6 0 C6 25.41 6 50.82 6 77 C29.76 77 53.52 77 78 77 C78 85.25 78 93.5 78 102 C77.67 102 77.34 102 77 102 C77 94.08 77 86.16 77 78 C53.24 78 29.48 78 5 78 C5 53.25 5 28.5 5 3 C2.03 2.505 2.03 2.505 -1 2 C-0.67 1.34 -0.34 0.68 0 0 Z " fill="#031927" transform="translate(238,96)"/>
<path d="M0 0 C0.66 0.33 1.32 0.66 2 1 C2 1.99 2 2.98 2 4 C1.34 4.66 0.68 5.32 0 6 C1.32 6 2.64 6 4 6 C4 9.3 4 12.6 4 16 C4.66 16 5.32 16 6 16 C5.67 17.98 5.34 19.96 5 22 C4.34 21.67 3.68 21.34 3 21 C2.67 21.66 2.34 22.32 2 23 C-2.62 23 -7.24 23 -12 23 C-12 22.67 -12 22.34 -12 22 C-10.35 22 -8.7 22 -7 22 C-7 20.35 -7 18.7 -7 17 C-5.68 17 -4.36 17 -3 17 C-3.33 13.04 -3.66 9.08 -4 5 C-3.01 4.67 -2.02 4.34 -1 4 C-0.26676204 1.98491642 -0.26676204 1.98491642 0 0 Z " fill="#0F1010" transform="translate(278,258)"/>
<path d="M0 0 C0.70284119 -0.00058411 1.40568237 -0.00116821 2.12982178 -0.00177002 C4.44610496 0.00101018 6.76109093 0.03209644 9.07714844 0.06347656 C10.68568214 0.07093925 12.29422495 0.07663205 13.902771 0.08062744 C18.13131929 0.09588179 22.35931582 0.13516138 26.58764648 0.17944336 C30.90438371 0.22040066 35.22121031 0.23863941 39.53808594 0.25878906 C48.00448465 0.30165628 56.47043536 0.36990462 64.93652344 0.45410156 C64.93652344 0.78410156 64.93652344 1.11410156 64.93652344 1.45410156 C41.50652344 1.45410156 18.07652344 1.45410156 -6.06347656 1.45410156 C-7.8480587 7.16476593 -7.8480587 7.16476593 -8.22363281 12.60253906 C-8.21267578 13.29734375 -8.20171875 13.99214844 -8.19042969 14.70800781 C-8.16916016 15.40796875 -8.14789063 16.10792969 -8.12597656 16.82910156 C-8.06470207 19.37539732 -8.04268867 21.90610006 -8.06347656 24.45410156 C-8.39347656 24.78410156 -8.72347656 25.11410156 -9.06347656 25.45410156 C-9.29775434 27.47004738 -9.4768378 29.49257556 -9.62597656 31.51660156 C-9.75166016 33.17369141 -9.75166016 33.17369141 -9.87988281 34.86425781 C-9.94046875 35.71890625 -10.00105469 36.57355469 -10.06347656 37.45410156 C-10.39347656 37.45410156 -10.72347656 37.45410156 -11.06347656 37.45410156 C-11.16249405 32.82770004 -11.23501305 28.20191769 -11.28320312 23.57470703 C-11.30329536 22.00135552 -11.33057456 20.42807848 -11.36523438 18.85498047 C-11.4138615 16.59095884 -11.43646791 14.32792584 -11.45410156 12.06347656 C-11.4747467 11.36228699 -11.49539185 10.66109741 -11.5166626 9.93865967 C-11.51810591 6.78385919 -11.35006488 4.84948321 -9.4765625 2.26477051 C-6.19541766 -0.19725 -4.07962699 -0.02852886 0 0 Z " fill="#072035" transform="translate(250.0634765625,197.5458984375)"/>
<path d="M0 0 C1.42385188 2.84770376 0.50780712 4.22068604 -0.43359375 7.2265625 C-0.75263672 8.2578125 -1.07167969 9.2890625 -1.40039062 10.3515625 C-1.74263672 11.43179688 -2.08488281 12.51203125 -2.4375 13.625 C-2.77587891 14.71296875 -3.11425781 15.8009375 -3.46289062 16.921875 C-4.30204702 19.61663074 -5.15019091 22.30858467 -6 25 C-0.06 25.99 -0.06 25.99 6 27 C4.68 29.31 3.36 31.62 2 34 C1 31 1 31 2 28 C-0.64 28 -3.28 28 -6 28 C-7.13764351 23.73383684 -8 20.43513689 -8 16 C-10.26716429 16.85006086 -10.26716429 16.85006086 -10.9375 19.5 C-11.288125 20.325 -11.63875 21.15 -12 22 C-12.99 22.33 -13.98 22.66 -15 23 C-15 23.66 -15 24.32 -15 25 C-15.66 25 -16.32 25 -17 25 C-15.5721974 21.98432341 -13.91416817 19.27624525 -12.03125 16.5234375 C-11.46019531 15.688125 -10.88914063 14.8528125 -10.30078125 13.9921875 C-9.70652344 13.12851563 -9.11226562 12.26484375 -8.5 11.375 C-7.90574219 10.50359375 -7.31148437 9.6321875 -6.69921875 8.734375 C-2.25796644 2.25796644 -2.25796644 2.25796644 0 0 Z " fill="#081927" transform="translate(235,111)"/>
<path d="M0 0 C0.66 0 1.32 0 2 0 C2.55704424 2.26711017 3.09517831 4.53887387 3.625 6.8125 C3.92664063 8.07707031 4.22828125 9.34164062 4.5390625 10.64453125 C5 14 5 14 3 17 C-0.96 16.67 -4.92 16.34 -9 16 C-8 11 -8 11 -7 9 C-6.34 9 -5.68 9 -5 9 C-5 8.34 -5 7.68 -5 7 C-4.01 6.34 -3.02 5.68 -2 5 C-0.79549696 2.44816596 -0.79549696 2.44816596 0 0 Z " fill="#0E1011" transform="translate(225,127)"/>
<path d="M0 0 C12.16520214 -0.59828863 23.01257507 0.23200283 33 8 C32.34 8.33 31.68 8.66 31 9 C28.375 8.0625 28.375 8.0625 26 7 C25.67 7.99 25.34 8.98 25 10 C24.34 10 23.68 10 23 10 C23.061875 11.11375 23.12375 12.2275 23.1875 13.375 C23.0946875 15.169375 23.0946875 15.169375 23 17 C19.60102327 19.26598448 18.43680827 19.23742654 14.45703125 19.1953125 C12.84731445 19.18564453 12.84731445 19.18564453 11.20507812 19.17578125 C9.52575195 19.15064453 9.52575195 19.15064453 7.8125 19.125 C6.68134766 19.11597656 5.55019531 19.10695313 4.38476562 19.09765625 C1.58963172 19.07406862 -1.20507845 19.041153 -4 19 C-4 18.67 -4 18.34 -4 18 C-3.31373535 17.97494385 -2.6274707 17.9498877 -1.92041016 17.92407227 C1.17825817 17.80828573 4.27660923 17.68548115 7.375 17.5625 C8.99535156 17.50352539 8.99535156 17.50352539 10.6484375 17.44335938 C12.1953125 17.38051758 12.1953125 17.38051758 13.7734375 17.31640625 C15.20308838 17.26141968 15.20308838 17.26141968 16.66162109 17.20532227 C19.02132349 17.14236535 19.02132349 17.14236535 21 16 C21 14.35 21 12.7 21 11 C17.04504575 8.38462703 12.83172627 8.55735726 8.25 8.375 C7.45722656 8.33632813 6.66445312 8.29765625 5.84765625 8.2578125 C3.89880584 8.163892 1.94943549 8.08087178 0 8 C0 7.67 0 7.34 0 7 C3.0833134 6.97088679 6.16659125 6.95316318 9.25 6.9375 C10.12269531 6.92912109 10.99539062 6.92074219 11.89453125 6.91210938 C12.73886719 6.90888672 13.58320313 6.90566406 14.453125 6.90234375 C15.22817383 6.89710693 16.00322266 6.89187012 16.80175781 6.88647461 C18.99283598 6.99963002 20.89637861 7.39447552 23 8 C23 7.34 23 6.68 23 6 C22.34 6 21.68 6 21 6 C21 5.01 21 4.02 21 3 C14.04291483 1.84048581 7.03255848 1.45843308 0 1 C0 0.67 0 0.34 0 0 Z " fill="#1B6398" transform="translate(219,268)"/>
<path d="M0 0 C0.33 0 0.66 0 1 0 C1 25.08 1 50.16 1 76 C0.67 76 0.34 76 0 76 C0 65.11 0 54.22 0 43 C-2.475 45.475 -2.475 45.475 -5 48 C-5.66 47.67 -6.32 47.34 -7 47 C-5.35 44.69 -3.7 42.38 -2 40 C-7.445 38.515 -7.445 38.515 -13 37 C-12.67 34.69 -12.34 32.38 -12 30 C-10.875 33.75 -10.875 33.75 -12 36 C-10.93458984 35.98259766 -10.93458984 35.98259766 -9.84765625 35.96484375 C-8.92855469 35.95582031 -8.00945312 35.94679687 -7.0625 35.9375 C-6.14597656 35.92589844 -5.22945312 35.91429687 -4.28515625 35.90234375 C-2 36 -2 36 -1 37 C-0.67 24.79 -0.34 12.58 0 0 Z " fill="#1E679B" transform="translate(242,99)"/>
<path d="M0 0 C0.33 0 0.66 0 1 0 C1.33 12.87 1.66 25.74 2 39 C3.32 36.69 4.64 34.38 6 32 C6.99 32 7.98 32 9 32 C9 31.34 9 30.68 9 30 C9.66 30.33 10.32 30.66 11 31 C10.04287109 31.99386719 10.04287109 31.99386719 9.06640625 33.0078125 C-0.81118812 45.30472405 0.69687314 59.95968619 1 75 C0.67 75 0.34 75 0 75 C0 50.25 0 25.5 0 0 Z " fill="#1F699F" transform="translate(211,99)"/>
<path d="M0 0 C0.33 0.66 0.66 1.32 1 2 C0.0625 4.625 0.0625 4.625 -1 7 C2.3 7 5.6 7 9 7 C9 9.97 9 12.94 9 16 C10.32 16.66 11.64 17.32 13 18 C9.7 22.62 6.4 27.24 3 32 C1.66540599 27.99621796 2.99729519 25.42101645 4.375 21.625 C5.86945816 17.42081 7.12018403 13.39907987 8 9 C4.04 8.67 0.08 8.34 -4 8 C-2 3 -2 3 0 0 Z " fill="#081723" transform="translate(217,136)"/>
<path d="M0 0 C1.12559743 3.3767923 0.74471956 4.60545699 0 8 C-0.2362357 11.5603583 -0.23088424 15.12002192 -0.25 18.6875 C-0.270625 19.63044922 -0.29125 20.57339844 -0.3125 21.54492188 C-0.34897737 28.17924269 0.74465143 33.76547498 3 40 C1.515 39.505 1.515 39.505 0 39 C0 37.35 0 35.7 0 34 C-0.66 34 -1.32 34 -2 34 C-2.33 25.09 -2.66 16.18 -3 7 C-8.24897617 12.83735964 -8.24897617 12.83735964 -11 19 C-11.66 19.33 -12.32 19.66 -13 20 C-13.33 20.99 -13.66 21.98 -14 23 C-14.66 23 -15.32 23 -16 23 C-14.65182525 17.98600178 -12.32991133 14.37413134 -9.125 10.375 C-8.69058594 9.81554687 -8.25617188 9.25609375 -7.80859375 8.6796875 C-5.37871693 5.58579029 -2.84691914 2.7145043 0 0 Z " fill="#1B5C8B" transform="translate(132,64)"/>
<path d="M0 0 C2.4375 0.75 2.4375 0.75 4.4375 2.75 C4.6875 5.75 4.6875 5.75 4.4375 8.75 C2.4375 10.75 2.4375 10.75 -0.5 11.0625 C-3.5625 10.75 -3.5625 10.75 -5.5 9.625 C-6.5625 7.75 -6.5625 7.75 -6.4375 4.6875 C-5.31039351 0.90364248 -4.04478927 -0.39461359 0 0 Z " fill="#0B131C" transform="translate(227.5625,180.25)"/>
<path d="M0 0 C2.77264515 2.39925167 3.91655852 4.70660567 5.1875 8.125 C5.53167969 9.01445312 5.87585938 9.90390625 6.23046875 10.8203125 C7 14 7 14 7 23 C-9.17 23 -25.34 23 -42 23 C-42 21.35 -42 19.7 -42 18 C-41.67 19.32 -41.34 20.64 -41 22 C-25.49 22 -9.98 22 6 22 C6 20.02 6 18.04 6 16 C5.34 16 4.68 16 4 16 C3.34 14.68 2.68 13.36 2 12 C1.34 12 0.68 12 0 12 C0.33 11.236875 0.66 10.47375 1 9.6875 C2.17436686 7.00930865 2.17436686 7.00930865 2 4 C1.34 4 0.68 4 0 4 C0 2.68 0 1.36 0 0 Z " fill="#1A669D" transform="translate(296,142)"/>
<path d="M0 0 C1.98 0 3.96 0 6 0 C6 25.74 6 51.48 6 78 C5.67 78 5.34 78 5 78 C5 53.25 5 28.5 5 3 C2.03 2.505 2.03 2.505 -1 2 C-0.67 1.34 -0.34 0.68 0 0 Z " fill="#032135" transform="translate(238,96)"/>
<path d="M0 0 C0 20.46 0 40.92 0 62 C-1.32 61.67 -2.64 61.34 -4 61 C-3.34 60.01 -2.68 59.02 -2 58 C-1.67160363 55.43424748 -1.67160363 55.43424748 -1.68115234 52.51879883 C-1.66128265 51.39786331 -1.64141296 50.2769278 -1.62094116 49.12202454 C-1.60938995 47.91257675 -1.59783875 46.70312897 -1.5859375 45.45703125 C-1.56657135 44.21829758 -1.5472052 42.9795639 -1.5272522 41.70329285 C-1.47756593 38.41374825 -1.43630718 35.12423875 -1.39910889 31.83453369 C-1.35906688 28.47617475 -1.30797549 25.11798594 -1.2578125 21.75976562 C-1.16167847 15.17328642 -1.07665152 8.58673317 -1 2 C-1.66 2 -2.32 2 -3 2 C-3 2.99 -3 3.98 -3 5 C-5.97 4.505 -5.97 4.505 -9 4 C-3.7826087 0 -3.7826087 0 0 0 Z " fill="#18669C" transform="translate(200,103)"/>
<path d="M0 0 C0.66 0.33 1.32 0.66 2 1 C1.690625 2.0209375 1.690625 2.0209375 1.375 3.0625 C0.7918165 6.08499333 0.7918165 6.08499333 1.9375 9.25 C3.13460645 13.4750816 3.94836176 17.65200243 3 22 C1.37109375 24.24609375 1.37109375 24.24609375 -1 26 C-7.74947017 27.04109475 -14.61228303 26.37682492 -21 24 C-17.09519751 22.64137027 -13.2898224 23.10530288 -9.25 23.4375 C-8.55261719 23.48970703 -7.85523438 23.54191406 -7.13671875 23.59570312 C-5.42403797 23.72474072 -3.71194934 23.86159614 -2 24 C-1.67 23.01 -1.34 22.02 -1 21 C-0.34 20.67 0.32 20.34 1 20 C1.33 19.01 1.66 18.02 2 17 C1.34 17 0.68 17 0 17 C-0.19386492 14.35448944 -0.38038267 11.70882217 -0.5625 9.0625 C-0.61857422 8.30775391 -0.67464844 7.55300781 -0.73242188 6.77539062 C-0.86176157 4.85254042 -0.93516912 2.92610452 -1 1 C-0.67 0.67 -0.34 0.34 0 0 Z " fill="#051E32" transform="translate(282,257)"/>
<path d="M0 0 C0.144375 0.61875 0.28875 1.2375 0.4375 1.875 C0.93152225 4.03258322 0.93152225 4.03258322 2 6 C1.67 6.99 1.34 7.98 1 9 C0.34 9 -0.32 9 -1 9 C-1.1546875 9.86625 -1.1546875 9.86625 -1.3125 10.75 C-2 13 -2 13 -3.46875 14.71875 C-5.46697921 17.69570372 -5.72747528 20.21134829 -6.1875 23.75 C-6.42533203 25.50570312 -6.42533203 25.50570312 -6.66796875 27.296875 C-6.77753906 28.18890625 -6.88710937 29.0809375 -7 30 C-9.31 30 -11.62 30 -14 30 C-14.33 28.68 -14.66 27.36 -15 26 C-13.02 26.66 -11.04 27.32 -9 28 C-8.896875 27.05125 -8.79375 26.1025 -8.6875 25.125 C-7.37309168 16.15821446 -3.90393975 8.11649134 0 0 Z " fill="#081A29" transform="translate(150,131)"/>
<path d="M0 0 C0.82638376 2.89234315 1 4.88742431 1 8 C1.33 8.33 1.66 8.66 2 9 C2.12658222 11.65822657 2.18520214 14.27887424 2.1875 16.9375 C2.19974609 17.67935547 2.21199219 18.42121094 2.22460938 19.18554688 C2.22988478 21.12513629 2.12188902 23.0642371 2 25 C-1.40161167 28.40161167 -5.38660204 28.08452237 -10 28.1875 C-13.75828908 28.15945307 -16.6234563 27.80082331 -20 26 C-15.39015333 24.5275674 -10.77176798 25.07350725 -5.99609375 25.2578125 C-3.04378976 25.24377572 -3.04378976 25.24377572 -1.1171875 23.7578125 C0.98851342 20.44464672 0.39082765 16.78220305 0 13 C-0.66152556 10.6652039 -1.32741333 8.33163378 -2 6 C-1.51219512 1.51219512 -1.51219512 1.51219512 0 0 Z " fill="#1C6598" transform="translate(284,257)"/>
<path d="M0 0 C4.75 0.75 4.75 0.75 7 3 C6.44444444 7.55555556 6.44444444 7.55555556 5 9 C3.00041636 9.04080783 0.99954746 9.04254356 -1 9 C-2.1875 6.75 -2.1875 6.75 -3 4 C-1.625 1.6875 -1.625 1.6875 0 0 Z " fill="#041C30" transform="translate(298,181)"/>
<path d="M0 0 C4.55555556 0.55555556 4.55555556 0.55555556 6 2 C6.125 5 6.125 5 6 8 C5 9 5 9 2.0625 9.1875 C-1 9 -1 9 -3 7 C-2.67028521 3.70285207 -2.3773161 2.3773161 0 0 Z " fill="#091824" transform="translate(152,181)"/>
<path d="M0 0 C5 1 5 1 7 3 C5.35 3 3.7 3 2 3 C1.67 20.49 1.34 37.98 1 56 C0.67 56 0.34 56 0 56 C0 37.52 0 19.04 0 0 Z " fill="#19679F" transform="translate(254,103)"/>
<path d="M0 0 C2.64 0.33 5.28 0.66 8 1 C8 1.99 8 2.98 8 4 C12.97361654 5.75734451 17.7415998 7.32584613 23 8 C23 5.69 23 3.38 23 1 C25.76223278 3.76223278 25.57856291 6.20706617 26 10 C19.40744001 10.45925699 15.38577238 9.24857077 9.625 6.125 C8.91472656 5.76019531 8.20445312 5.39539063 7.47265625 5.01953125 C4.66705223 3.55550638 2.24995083 2.24995083 0 0 Z " fill="#1D6294" transform="translate(249,263)"/>
<path d="M0 0 C0.33 0 0.66 0 1 0 C1.06058594 0.84304687 1.12117187 1.68609375 1.18359375 2.5546875 C1.26738281 3.65039062 1.35117188 4.74609375 1.4375 5.875 C1.51871094 6.96554688 1.59992188 8.05609375 1.68359375 9.1796875 C1.83001703 11.94728971 1.83001703 11.94728971 3 14 C3.21691392 15.37206521 3.38923163 16.75139272 3.53515625 18.1328125 C3.62216797 18.93847656 3.70917969 19.74414062 3.79882812 20.57421875 C3.88583984 21.41597656 3.97285156 22.25773437 4.0625 23.125 C4.15337891 23.97449219 4.24425781 24.82398438 4.33789062 25.69921875 C4.5620368 27.7991145 4.78146448 29.89951293 5 32 C5.99 32.33 6.98 32.66 8 33 C7.34 33 6.68 33 6 33 C6.33 34.65 6.66 36.3 7 38 C4.32571041 35.32571041 3.94569115 32.88408823 2.9375 29.25 C2.59589844 28.03828125 2.25429687 26.8265625 1.90234375 25.578125 C0.36218244 19.47081869 -0.13607587 13.88460837 -0.0625 7.625 C-0.05798828 6.88894531 -0.05347656 6.15289062 -0.04882812 5.39453125 C-0.03715142 3.59631842 -0.01922011 1.79814803 0 0 Z " fill="#041726" transform="translate(155,208)"/>
<path d="M0 0 C1.37432457 3.81756824 0.67975039 7.07255329 0 11 C-0.66 11 -1.32 11 -2 11 C-2.33 18.26 -2.66 25.52 -3 33 C-3.33 33 -3.66 33 -4 33 C-6.39373489 22.18958437 -5.43529028 9.8071542 0 0 Z " fill="#1B6091" transform="translate(115,87)"/>
<path d="M0 0 C0.66 0 1.32 0 2 0 C4.88549626 6.58341381 6.85210257 12.90116066 8 20 C9.32 20 10.64 20 12 20 C12.33 18.68 12.66 17.36 13 16 C14.32 16.33 15.64 16.66 17 17 C15.90398831 18.00893131 14.79786082 19.00688225 13.6875 20 C13.07261719 20.556875 12.45773437 21.11375 11.82421875 21.6875 C10 23 10 23 7 23 C6.66226562 21.84242188 6.32453125 20.68484375 5.9765625 19.4921875 C5.52610017 17.95310788 5.07557606 16.41404633 4.625 14.875 C4.40328125 14.11445313 4.1815625 13.35390625 3.953125 12.5703125 C2.71617216 8.35012047 1.42291307 4.16235318 0 0 Z " fill="#1C6091" transform="translate(306,136)"/>
<path d="M0 0 C0.96357422 -0.00773437 1.92714844 -0.01546875 2.91992188 -0.0234375 C8.36027158 -0.008563 12.92167828 0.44820991 18.0625 2.25 C18.0625 2.58 18.0625 2.91 18.0625 3.25 C16.86625 3.085 15.67 2.92 14.4375 2.75 C2.70389225 1.42300862 2.70389225 1.42300862 -8.8125 3.25 C-12.72015114 4.50044836 -15.85186637 4.39335557 -19.9375 4.25 C-13.4955298 -0.0446468 -7.50072944 -0.05996586 0 0 Z " fill="#03192B" transform="translate(225.9375,258.75)"/>
<path d="M0 0 C0.99 0 1.98 0 3 0 C3 0.66 3 1.32 3 2 C4.32 2.66 5.64 3.32 7 4 C6.67 4.99 6.34 5.98 6 7 C4.68 5.68 3.36 4.36 2 3 C2.16371094 3.95003906 2.32742188 4.90007812 2.49609375 5.87890625 C3.16558293 10.56533049 3.10920922 15.21268306 3.0625 19.9375 C3.05798828 20.81212891 3.05347656 21.68675781 3.04882812 22.58789062 C3.03714834 24.72529047 3.01921689 26.86265463 3 29 C2.67 29 2.34 29 2 29 C1.93941406 28.03578125 1.87882812 27.0715625 1.81640625 26.078125 C1.73261719 24.81484375 1.64882813 23.5515625 1.5625 22.25 C1.48128906 20.99703125 1.40007812 19.7440625 1.31640625 18.453125 C1.10928518 15.20166675 1.10928518 15.20166675 0.46875 12.90625 C-0.16568091 10.32623096 -0.09406715 7.90164078 -0.0625 5.25 C-0.05347656 4.26515625 -0.04445313 3.2803125 -0.03515625 2.265625 C-0.02355469 1.51796875 -0.01195312 0.7703125 0 0 Z " fill="#071F31" transform="translate(320,63)"/>
<path d="M0 0 C0 0.99 0 1.98 0 3 C-0.7425 3.2475 -1.485 3.495 -2.25 3.75 C-5.24840999 5.11291363 -6.87959545 6.50095178 -9 9 C-9.33 9.99 -9.66 10.98 -10 12 C-11.98 12.33 -13.96 12.66 -16 13 C-17.5625 10.625 -17.5625 10.625 -19 8 C-18.67 7.34 -18.34 6.68 -18 6 C-16.68 7.32 -15.36 8.64 -14 10 C-13.07767578 9.16855469 -13.07767578 9.16855469 -12.13671875 8.3203125 C-10.92435547 7.23363281 -10.92435547 7.23363281 -9.6875 6.125 C-8.88699219 5.40570313 -8.08648437 4.68640625 -7.26171875 3.9453125 C-2.6746988 0 -2.6746988 0 0 0 Z " fill="#071C2E" transform="translate(192,240)"/>
<path d="M0 0 C1.65 0 3.3 0 5 0 C5 2.31 5 4.62 5 7 C6.32 6.67 7.64 6.34 9 6 C8.773125 6.825 8.54625 7.65 8.3125 8.5 C7.95723993 12.4789128 8.7804062 14.44686919 10.296875 18.03125 C11.25965009 20.72702026 11.2122342 23.17021073 11 26 C9.25654336 22.6970294 7.93617018 19.30756192 6.625 15.8125 C4.58736918 10.45540533 2.405819 5.20140757 0 0 Z " fill="#051928" transform="translate(293,134)"/>
<path d="M0 0 C0.33 0 0.66 0 1 0 C0.98839844 1.02738281 0.97679688 2.05476563 0.96484375 3.11328125 C0.90275527 11.13821757 1.05283219 19.01672842 2 27 C1.34 27 0.68 27 0 27 C-4.34482759 7.29310345 -4.34482759 7.29310345 0 0 Z " fill="#051F35" transform="translate(110,99)"/>
<path d="M0 0 C0.66 0.33 1.32 0.66 2 1 C-0.0967789 3.17443738 -2.17788742 5.13883896 -4.5625 7 C-7.04992922 8.86740717 -7.04992922 8.86740717 -8.625 11.25 C-9.07875 11.8275 -9.5325 12.405 -10 13 C-10.99 13 -11.98 13 -13 13 C-13.33 13.99 -13.66 14.98 -14 16 C-14.99 15.67 -15.98 15.34 -17 15 C-11.67248457 9.45050476 -6.32532275 4.39497902 0 0 Z " fill="#1A6294" transform="translate(184,110)"/>
<path d="M0 0 C1.4540625 0.0309375 1.4540625 0.0309375 2.9375 0.0625 C3.2675 1.3825 3.5975 2.7025 3.9375 4.0625 C0.42973216 5.66605101 -2.20604879 6.28286864 -6.0625 6.0625 C-3.76028481 0.07674051 -3.76028481 0.07674051 0 0 Z " fill="#120F0D" transform="translate(185.0625,274.9375)"/>
<path d="M0 0 C0.66 0.33 1.32 0.66 2 1 C1.48050781 1.66644531 0.96101563 2.33289063 0.42578125 3.01953125 C-4.40285141 9.40118069 -7.92125365 15.63726164 -11 23 C-11.65489781 24.33915312 -12.31739226 25.67475704 -13 27 C-12.59177739 16.38621226 -7.20094057 7.5438425 0 0 Z " fill="#031B2E" transform="translate(124,71)"/>
<path d="M0 0 C-0.53109375 0.38671875 -1.0621875 0.7734375 -1.609375 1.171875 C-6.13179607 4.5047382 -6.13179607 4.5047382 -10.25 8.3125 C-12.16856047 10.16254045 -13.39309864 10.62758552 -16 11 C-13.62404672 5.59265805 -9.38279757 2.21787432 -4.1875 -0.4375 C-2 -1 -2 -1 0 0 Z " fill="#186196" transform="translate(201,248)"/>
<path d="M0 0 C0.33 0.66 0.66 1.32 1 2 C0.65066406 2.44730469 0.30132812 2.89460937 -0.05859375 3.35546875 C-2.68898628 6.85023956 -4.59207142 9.51278557 -5 14 C-5.66 14 -6.32 14 -7 14 C-7.66 15.32 -8.32 16.64 -9 18 C-9.99 17.67 -10.98 17.34 -12 17 C-8.02889396 11.31227752 -4.04356153 5.6364797 0 0 Z " fill="#186296" transform="translate(232,150)"/>
<path d="M0 0 C3.06303578 -0.08115993 6.12390815 -0.14057409 9.1875 -0.1875 C10.48397461 -0.22520508 10.48397461 -0.22520508 11.80664062 -0.26367188 C16.63713284 -0.31919477 20.16843055 -0.32906854 24 3 C24.3125 5.6875 24.3125 5.6875 24 8 C23.01 8.495 23.01 8.495 22 9 C21.67 7.02 21.34 5.04 21 3 C18.26750659 2.24722485 15.71899317 1.83358297 12.890625 1.68359375 C12.13652344 1.64169922 11.38242188 1.59980469 10.60546875 1.55664062 C9.43951172 1.49766602 9.43951172 1.49766602 8.25 1.4375 C7.06083984 1.37272461 7.06083984 1.37272461 5.84765625 1.30664062 C3.89862185 1.20097009 1.94933252 1.10002034 0 1 C0 0.67 0 0.34 0 0 Z " fill="#061E31" transform="translate(217,276)"/>
<path d="M0 0 C1.32 0.33 2.64 0.66 4 1 C4.25 8.625 4.25 8.625 2 12 C0.0546875 12.29296875 0.0546875 12.29296875 -2.125 12.1875 C-4.043125 12.0946875 -4.043125 12.0946875 -6 12 C-6 11.01 -6 10.02 -6 9 C-5.030625 9.020625 -4.06125 9.04125 -3.0625 9.0625 C-0.12534105 9.35618499 -0.12534105 9.35618499 1 8 C1.24733137 3.85723125 1.24733137 3.85723125 0 0 Z " fill="#1A6092" transform="translate(230,181)"/>
<path d="M0 0 C0.66 0 1.32 0 2 0 C1.67 2.64 1.34 5.28 1 8 C8.26 8 15.52 8 23 8 C23 8.33 23 8.66 23 9 C19.20847666 9.0867982 15.41720704 9.14032207 11.625 9.1875 C10.54476562 9.21263672 9.46453125 9.23777344 8.3515625 9.26367188 C6.8046875 9.27817383 6.8046875 9.27817383 5.2265625 9.29296875 C4.27346191 9.3086792 3.32036133 9.32438965 2.33837891 9.34057617 C1.56671387 9.22818604 0.79504883 9.1157959 0 9 C-2 6 -2 6 -1.6875 3.375 C-1 1 -1 1 0 0 Z " fill="#001327" transform="translate(215,277)"/>
<path d="M0 0 C6.75 0.875 6.75 0.875 9 2 C7.47058649 5.05882701 5.05780454 5.68951234 2 7 C0 6 0 6 -0.6875 4.0625 C-1 2 -1 2 0 0 Z " fill="#0F0F0F" transform="translate(268,250)"/>
<path d="M0 0 C2.875 -0.125 2.875 -0.125 6 0 C8.41486943 2.41486943 8.2961925 3.12707789 8.3125 6.4375 C8.32925781 7.21996094 8.34601563 8.00242188 8.36328125 8.80859375 C7.92353251 11.46127163 7.04371546 12.322967 5 14 C2.525 13.01 2.525 13.01 0 12 C0 11.34 0 10.68 0 10 C1.98 9.67 3.96 9.34 6 9 C6 7.02 6 5.04 6 3 C5.195625 2.87625 4.39125 2.7525 3.5625 2.625 C2.716875 2.41875 1.87125 2.2125 1 2 C0.67 1.34 0.34 0.68 0 0 Z " fill="#176195" transform="translate(151,180)"/>
<path d="M0 0 C1.60031344 3.20062687 0.03173691 5.72271806 -1 9 C-3.375 8.6875 -3.375 8.6875 -6 8 C-6.66 7.01 -7.32 6.02 -8 5 C-7.01 5 -6.02 5 -5 5 C-4.67 3.68 -4.34 2.36 -4 1 C-2.68 0.67 -1.36 0.34 0 0 Z " fill="#176196" transform="translate(142,150)"/>
<path d="M0 0 C0.33 0 0.66 0 1 0 C1.20413361 5.73842251 1.27141454 10.60539047 -1 16 C-1.66 16 -2.32 16 -3 16 C-3.33 17.65 -3.66 19.3 -4 21 C-4.66 21 -5.32 21 -6 21 C-5.566875 19.7625 -5.13375 18.525 -4.6875 17.25 C-2.78947104 11.58302782 -1.38609152 5.80978785 0 0 Z " fill="#051E32" transform="translate(343,115)"/>
<path d="M0 0 C6.96050253 0.38669459 11.9394075 2.63438409 18 6 C16.16015625 7.078125 16.16015625 7.078125 14 8 C11.4375 6.75 11.4375 6.75 9 5 C6.01353231 3.00902154 3.40312738 2.05875074 0 1 C0 0.67 0 0.34 0 0 Z " fill="#061B2C" transform="translate(249,236)"/>
<path d="M0 0 C2.475 0.495 2.475 0.495 5 1 C5 1.66 5 2.32 5 3 C5.680625 3.185625 6.36125 3.37125 7.0625 3.5625 C11.18689821 5.58082253 13.90378945 8.66287393 17 12 C16.67 12.99 16.34 13.98 16 15 C15.401875 14.175 14.80375 13.35 14.1875 12.5 C10.83089989 8.41158301 6.5478336 5.63092819 2.23046875 2.63671875 C1.49441406 2.09660156 0.75835937 1.55648437 0 1 C0 0.67 0 0.34 0 0 Z " fill="#041E32" transform="translate(268,109)"/>
<path d="M0 0 C0.33 0.99 0.66 1.98 1 3 C-1.59177765 7.87254198 -4.37911618 10.26947774 -9 13 C-9.66 12.67 -10.32 12.34 -11 12 C-10.45730469 11.46890625 -9.91460937 10.9378125 -9.35546875 10.390625 C-8.64003906 9.68421875 -7.92460937 8.9778125 -7.1875 8.25 C-6.47980469 7.55390625 -5.77210938 6.8578125 -5.04296875 6.140625 C-3.17724121 4.18571355 -1.56830358 2.19661447 0 0 Z " fill="#041929" transform="translate(293,298)"/>
<path d="M0 0 C1.65 0 3.3 0 5 0 C1.43679155 5.09210286 -2.04741286 9.22660027 -7 13 C-7 12.01 -7 11.02 -7 10 C-6.34 10 -5.68 10 -5 10 C-5 9.01 -5 8.02 -5 7 C-4.01 7 -3.02 7 -2 7 C-2 6.34 -2 5.68 -2 5 C-1.34 5 -0.68 5 0 5 C0 3.35 0 1.7 0 0 Z " fill="#196499" transform="translate(289,297)"/>
<path d="M0 0 C0.66 0.33 1.32 0.66 2 1 C0.52504318 3.33609323 -0.95468745 5.66890167 -2.4375 8 C-2.85837891 8.66773438 -3.27925781 9.33546875 -3.71289062 10.0234375 C-4.78188817 11.69962565 -5.88802605 13.35200837 -7 15 C-7.33 15 -7.66 15 -8 15 C-8.37078652 9.43820225 -8.37078652 9.43820225 -6.625 7.375 C-6.08875 6.92125 -5.5525 6.4675 -5 6 C-3.82425289 3.90010348 -3.82425289 3.90010348 -3 2 C-2.01 2 -1.02 2 0 2 C0 1.34 0 0.68 0 0 Z " fill="#17659A" transform="translate(220,129)"/>
<path d="M0 0 C0.87840996 3.09720845 0.99435406 4.90645403 0 8 C-0.66 8 -1.32 8 -2 8 C-1.95875 9.010625 -1.9175 10.02125 -1.875 11.0625 C-2.00573843 15.18076052 -2.73250786 18.11830533 -4 22 C-4.33 22 -4.66 22 -5 22 C-5.80355169 13.96448307 -2.89683539 7.36623855 0 0 Z " fill="#1B6295" transform="translate(156,143)"/>
<path d="M0 0 C0.66 0.33 1.32 0.66 2 1 C1.67 2.98 1.34 4.96 1 7 C2.65 7.33 4.3 7.66 6 8 C6.66 6.02 7.32 4.04 8 2 C8.33 2 8.66 2 9 2 C9.125 4.875 9.125 4.875 9 8 C7 10 7 10 4.0625 10.3125 C1 10 1 10 -0.9375 8.875 C-2.53943488 6.04805609 -1.79584319 4.05073223 -1 1 C-0.67 0.67 -0.34 0.34 0 0 Z " fill="#021D33" transform="translate(223,181)"/>
<path d="M0 0 C2.015625 1.390625 2.015625 1.390625 4 4 C4.36750355 7.2832342 4.05532047 10.46901654 3.75 13.75 C3.68425781 14.63816406 3.61851562 15.52632812 3.55078125 16.44140625 C3.38606251 18.62981235 3.20189011 20.81476178 3 23 C2.67 23 2.34 23 2 23 C1.93941406 22.01 1.87882812 21.02 1.81640625 20 C1.39539534 13.30533362 0.94925871 6.64481097 0 0 Z " fill="#1E5E8D" transform="translate(321,65)"/>
<path d="M0 0 C1.32 0 2.64 0 4 0 C2.27933894 5.44876003 0.15294651 10.71169451 -2 16 C-2.33 16 -2.66 16 -3 16 C-3.33504304 11.19771643 -2.47939916 9.02902364 0 5 C0.25196129 2.29046449 0.25196129 2.29046449 0 0 Z " fill="#061927" transform="translate(155,137)"/>
<path d="M0 0 C3.40739705 2.24578442 6.76478258 4.51137122 10 7 C10.66 6.67 11.32 6.34 12 6 C12 6.99 12 7.98 12 9 C9.69 8.67 7.38 8.34 5 8 C5 7.01 5 6.02 5 5 C3.68 5 2.36 5 1 5 C0.67 3.35 0.34 1.7 0 0 Z " fill="#051C2F" transform="translate(267,243)"/>
<path d="M0 0 C2.4375 0.8125 2.4375 0.8125 5 2 C5.33 2.99 5.66 3.98 6 5 C7.32338632 5.68620031 8.65949948 6.34786461 10 7 C12.06722076 8.59716811 14.02157854 10.29136328 16 12 C11.87963794 12 10.56747193 10.3006723 7.4375 7.6875 C6.46683594 6.88699219 5.49617187 6.08648437 4.49609375 5.26171875 C2 3 2 3 0 0 Z " fill="#1C5F8C" transform="translate(169,307)"/>
<path d="M0 0 C3.26008643 3.16952847 6.22237877 6.39937989 9 10 C6.61435923 9.42415568 4.33317216 8.77772405 2 8 C1.26953125 6.15234375 1.26953125 6.15234375 0.8125 3.9375 C0.65394531 3.20402344 0.49539062 2.47054688 0.33203125 1.71484375 C0.22246094 1.14894531 0.11289063 0.58304687 0 0 Z " fill="#051B29" transform="translate(160,298)"/>
<path d="M0 0 C1.17679972 3.43498297 0.81887767 5.56282473 -0.25 9 C-0.62898438 10.2684375 -0.62898438 10.2684375 -1.015625 11.5625 C-2.03290117 14.08146956 -3.27891452 15.91149178 -5 18 C-5.31961814 13.31226722 -4.78575212 11.64290662 -2 8 C-1.15702023 5.35355441 -0.58933406 2.72000336 0 0 Z " fill="#051B2E" transform="translate(297,228)"/>
<path d="M0 0 C1.57156655 3.1431331 0.11705576 5.365464 -0.9375 8.625 C-1.31777344 9.81351563 -1.69804687 11.00203125 -2.08984375 12.2265625 C-2.39019531 13.14179687 -2.69054687 14.05703125 -3 15 C-3.5534764 12.92446352 -4 11.15634036 -4 9 C-4.66 8.67 -5.32 8.34 -6 8 C-4.02 5.36 -2.04 2.72 0 0 Z " fill="#03233E" transform="translate(235,111)"/>
<path d="M0 0 C0.66 0 1.32 0 2 0 C2 0.66 2 1.32 2 2 C2.598125 2.04125 3.19625 2.0825 3.8125 2.125 C6 3 6 3 7.8125 5.875 C9 9 9 9 8 12 C6.66382103 10.18959679 5.33112616 8.3766216 4 6.5625 C3.2575 5.55316406 2.515 4.54382813 1.75 3.50390625 C0 1 0 1 0 0 Z " fill="#19669A" transform="translate(157,292)"/>
<path d="M0 0 C-1.3937282 4.43458973 -3.60582235 6.87378374 -7 10 C-7.3125 7.8125 -7.3125 7.8125 -7 5 C-2.77777778 0 -2.77777778 0 0 0 Z " fill="#1A6497" transform="translate(336,136)"/>
<path d="M0 0 C1.21992215 2.9122997 1.01199085 3.96877469 -0.14453125 6.98046875 C-0.69496094 8.03878906 -1.24539063 9.09710938 -1.8125 10.1875 C-2.62654297 11.78658203 -2.62654297 11.78658203 -3.45703125 13.41796875 C-5 16 -5 16 -7 17 C-6.31976269 13.6683832 -5.06267812 10.94928951 -3.5 7.9375 C-2.12387917 5.27726641 -0.94893589 2.84680767 0 0 Z " fill="#031B2E" transform="translate(321,93)"/>
<path d="M0 0 C1.05833703 3.28300468 0.99812159 4.00553638 -0.1875 7.5 C-1.84704181 10.70463246 -3.29492345 12.66803746 -6 15 C-6 11.21286807 -4.73107406 9.16645599 -3 5.8125 C-2.443125 4.72582031 -1.88625 3.63914063 -1.3125 2.51953125 C-0.879375 1.68808594 -0.44625 0.85664063 0 0 Z " fill="#082237" transform="translate(286,234)"/>
<path d="M0 0 C-1.58220587 0.96019364 -3.16581331 1.91807798 -4.75 2.875 C-6.07257813 3.67550781 -6.07257813 3.67550781 -7.421875 4.4921875 C-9.58274093 5.75596666 -11.74570395 6.91498835 -14 8 C-14.33 7.01 -14.66 6.02 -15 5 C-13.865625 4.54625 -12.73125 4.0925 -11.5625 3.625 C-7.95278308 2.42904194 -7.95278308 2.42904194 -7 0 C-4.0262656 -1.09036928 -3.11592499 -1.03864166 0 0 Z " fill="#041C2D" transform="translate(193,106)"/>
<path d="M0 0 C1.77388086 1.09926403 3.54399684 2.20460502 5.3125 3.3125 C6.29863281 3.92738281 7.28476563 4.54226563 8.30078125 5.17578125 C10.50172035 6.66324661 12.23328988 8.0403386 14 10 C8.48364034 8.62091009 4.13041773 5.8578521 0 2 C0 1.34 0 0.68 0 0 Z " fill="#041E31" transform="translate(184,320)"/>
<path d="M0 0 C1.65 0 3.3 0 5 0 C5 1.98 5 3.96 5 6 C3.35 5.67 1.7 5.34 0 5 C0 3.35 0 1.7 0 0 Z " fill="#0F100F" transform="translate(297,183)"/>
<path d="M0 0 C0 2 0 2 -1.4375 3.625 C-5.21977227 5.65451195 -8.79280836 5.24272259 -13 5 C-3.13043478 0 -3.13043478 0 0 0 Z M-5 5 C-4.67 5.66 -4.34 6.32 -4 7 C-4.66 6.67 -5.32 6.34 -6 6 C-5.67 5.67 -5.34 5.34 -5 5 Z " fill="#051A2B" transform="translate(196,269)"/>
<path d="M0 0 C1.50560497 2.85410334 2.63216796 5.68124642 3.625 8.75 C3.88539063 9.54921875 4.14578125 10.3484375 4.4140625 11.171875 C4.60742188 11.77515625 4.80078125 12.3784375 5 13 C2 12 2 12 0.8125 10.4375 C-0.37040794 6.88877617 -0.12443279 3.73298379 0 0 Z " fill="#081D30" transform="translate(166,230)"/>
<path d="M0 0 C0.33 0.99 0.66 1.98 1 3 C1.66 2.67 2.32 2.34 3 2 C3 4.31 3 6.62 3 9 C2.01 9 1.02 9 0 9 C-1.125 7.3125 -1.125 7.3125 -2 5 C-1.125 2.25 -1.125 2.25 0 0 Z " fill="#1268A4" transform="translate(234,147)"/>
<path d="M0 0 C0.75 1.625 0.75 1.625 1 4 C-2.136 9.712 -2.136 9.712 -6 11 C-4.54955729 6.89041233 -2.48889248 3.56741255 0 0 Z " fill="#186196" transform="translate(163,131)"/>
<path d="M0 0 C2.34917898 2.15341406 3.82443004 4.21667937 5.25 7.0625 C5.60578125 7.75472656 5.9615625 8.44695312 6.328125 9.16015625 C6.54984375 9.76730469 6.7715625 10.37445313 7 11 C6.67 11.66 6.34 12.32 6 13 C5.34 11.35 4.68 9.7 4 8 C3.34 8 2.68 8 2 8 C0.23537317 4.91190305 0 3.76687864 0 0 Z " fill="#061A2C" transform="translate(300,127)"/>
<path d="M0 0 C2.1793144 1.75864246 2.93686419 2.69396 3.51171875 5.48046875 C3.56972656 6.37378906 3.62773438 7.26710938 3.6875 8.1875 C3.75324219 9.08855469 3.81898437 9.98960937 3.88671875 10.91796875 C3.92410156 11.60503906 3.96148437 12.29210937 4 13 C0.87506296 9.87506296 0.04088867 7.08354985 -0.125 2.6875 C-0.08375 1.800625 -0.0425 0.91375 0 0 Z " fill="#196295" transform="translate(112,120)"/>
<path d="M0 0 C2.75383923 1.37691962 3.51483101 3.36720042 5 6 C2.69 6 0.38 6 -2 6 C-1.125 1.125 -1.125 1.125 0 0 Z " fill="#1369A4" transform="translate(225,175)"/>
<path d="M0 0 C0 3.25811062 -0.5522078 5.10441559 -2 8 C-2.99 8.33 -3.98 8.66 -5 9 C-5 9.66 -5 10.32 -5 11 C-5.66 11 -6.32 11 -7 11 C-5.22054913 6.95579349 -2.60470327 3.53921513 0 0 Z " fill="#061D2D" transform="translate(225,125)"/>
<path d="M0 0 C1.98 0.99 3.96 1.98 6 3 C4.8141763 6.37503669 3.72426311 8.64722731 1 11 C1 9.68 1 8.36 1 7 C1.66 7 2.32 7 3 7 C3 5.68 3 4.36 3 3 C2.01 3 1.02 3 0 3 C0 2.01 0 1.02 0 0 Z " fill="#1D6395" transform="translate(149,120)"/>
<path d="M0 0 C0.33 0.66 0.66 1.32 1 2 C0.67 2.66 0.34 3.32 0 4 C-0.99 4.33 -1.98 4.66 -3 5 C-3.33 6.65 -3.66 8.3 -4 10 C-4.99 9.01 -5.98 8.02 -7 7 C-5.66667905 3.00003714 -3.5042173 2.16217663 0 0 Z " fill="#1C6292" transform="translate(306,118)"/>
<path d="M0 0 C0 0.99 0 1.98 0 3 C-1.546875 2.9690625 -1.546875 2.9690625 -3.125 2.9375 C-6.55152969 2.99276661 -9.64572414 3.34550715 -13 4 C-9.38656695 0.38656695 -4.97659681 -0.29274099 0 0 Z " fill="#061D2F" transform="translate(205,236)"/>
<path d="M0 0 C0.33 0 0.66 0 1 0 C1.042721 1.66611905 1.04063832 3.33382885 1 5 C0.67 5.33 0.34 5.66 0 6 C-0.23287008 7.68183948 -0.41264166 9.3712416 -0.5625 11.0625 C-0.64628906 11.98160156 -0.73007813 12.90070313 -0.81640625 13.84765625 C-0.87699219 14.55792969 -0.93757813 15.26820312 -1 16 C-1.33 16 -1.66 16 -2 16 C-2.05423638 14.08364783 -2.09289963 12.16685075 -2.125 10.25 C-2.14820312 9.18265625 -2.17140625 8.1153125 -2.1953125 7.015625 C-2.00487687 4.07529894 -1.52670104 2.47638122 0 0 Z " fill="#061724" transform="translate(110,99)"/>
<path d="M0 0 C0.66 1.32 1.32 2.64 2 4 C1.01 4 0.02 4 -1 4 C-1.33 5.32 -1.66 6.64 -2 8 C-3.32 8.33 -4.64 8.66 -6 9 C-4.02 6.03 -2.04 3.06 0 0 Z " fill="#176294" transform="translate(291,248)"/>
<path d="M0 0 C1.98 0 3.96 0 6 0 C6 1.32 6 2.64 6 4 C4.35 3.67 2.7 3.34 1 3 C0.67 2.01 0.34 1.02 0 0 Z " fill="#0F100E" transform="translate(223,186)"/>
<path d="M0 0 C0.33 0.99 0.66 1.98 1 3 C1.66 3 2.32 3 3 3 C1.61410019 6.09162264 0.50816459 7.49183541 -2 10 C-1.34 6.7 -0.68 3.4 0 0 Z " fill="#032642" transform="translate(221,158)"/>
<path d="M0 0 C0.33 0.66 0.66 1.32 1 2 C0.0625 4.625 0.0625 4.625 -1 7 C0.65 7 2.3 7 4 7 C4 7.33 4 7.66 4 8 C1.36 8 -1.28 8 -4 8 C-2.87548273 5.0280615 -1.77706209 2.66559313 0 0 Z " fill="#041F34" transform="translate(217,136)"/>
<path d="M0 0 C-1.875 4.75 -1.875 4.75 -3 7 C-3.66 7 -4.32 7 -5 7 C-4.625 4.0625 -4.625 4.0625 -4 1 C-2 0 -2 0 0 0 Z " fill="#1D1D1D" transform="translate(397,286)"/>
<path d="M0 0 C3.59391114 1.33488128 6.75490696 2.96022723 10 5 C9.01 5.495 9.01 5.495 8 6 C4.4375 4.75 4.4375 4.75 1 3 C0.67 2.01 0.34 1.02 0 0 Z " fill="#196394" transform="translate(242,271)"/>
<path d="M0 0 C0 0.66 0 1.32 0 2 C-3.2491277 4.3208055 -6.05879291 5.43697042 -10 6 C-4.4 0 -4.4 0 0 0 Z " fill="#041E31" transform="translate(206,263)"/>
<path d="M0 0 C1 2 1 2 0.4375 4 C-1.57302108 6.79724672 -3.74418077 7.15065585 -7 8 C-6.02133662 6.85373678 -5.04205413 5.70800212 -4.0625 4.5625 C-3.51722656 3.92441406 -2.97195313 3.28632813 -2.41015625 2.62890625 C-1.63204305 1.73008851 -0.84063472 0.84063472 0 0 Z " fill="#041A2B" transform="translate(326,149)"/>
<path d="M0 0 C3.63 1.32 7.26 2.64 11 4 C6.99998285 5.00000429 4.94476647 4.80688405 1 4 C0.67 2.68 0.34 1.36 0 0 Z " fill="#1B6398" transform="translate(253,277)"/>
<path d="M0 0 C2.64 1.98 5.28 3.96 8 6 C6.68 6.33 5.36 6.66 4 7 C1.03460313 4.91323924 0.92341871 3.69367485 0 0 Z " fill="#176298" transform="translate(141,113)"/>
<path d="M0 0 C0.66 0.33 1.32 0.66 2 1 C0.68 2.65 -0.64 4.3 -2 6 C-3.32 5.67 -4.64 5.34 -6 5 C-4.02 3.35 -2.04 1.7 0 0 Z " fill="#051726" transform="translate(273,317)"/>
<path d="M0 0 C0.66 0 1.32 0 2 0 C1.67 2.97 1.34 5.94 1 9 C0.01 8.01 -0.98 7.02 -2 6 C-1.57894737 1.57894737 -1.57894737 1.57894737 0 0 Z " fill="#052138" transform="translate(215,277)"/>
<path d="M0 0 C1.13643966 3.40931897 0.86747764 4.00335456 -0.4375 7.1875 C-0.86869141 8.26064453 -0.86869141 8.26064453 -1.30859375 9.35546875 C-1.53675781 9.89816406 -1.76492188 10.44085938 -2 11 C-2.33 11 -2.66 11 -3 11 C-3.32613618 6.32538149 -2.70582788 3.83325617 0 0 Z " fill="#1A6699" transform="translate(341,121)"/>
<path d="M0 0 C3.39417765 3.12621626 5.6062718 5.56541027 7 10 C2.57320993 8.52440331 2.08567304 6.09942632 0 2 C0 1.34 0 0.68 0 0 Z " fill="#1C5D8D" transform="translate(329,73)"/>
<path d="M0 0 C0.33 0.99 0.66 1.98 1 3 C0.01 3.66 -0.98 4.32 -2 5 C-2.33 5.99 -2.66 6.98 -3 8 C-3.66 8 -4.32 8 -5 8 C-3.375 2.25 -3.375 2.25 0 0 Z " fill="#1A6297" transform="translate(121,79)"/>
<path d="M0 0 C0.66 0.33 1.32 0.66 2 1 C2 1.99 2 2.98 2 4 C-0.31 4 -2.62 4 -5 4 C-3.35 2.68 -1.7 1.36 0 0 Z " fill="#05182A" transform="translate(257,328)"/>
<path d="M0 0 C1.65 0 3.3 0 5 0 C5 1.65 5 3.3 5 5 C4.01 5 3.02 5 2 5 C1.34 3.35 0.68 1.7 0 0 Z " fill="#08141F" transform="translate(293,134)"/>
<path d="M0 0 C4.17799643 2.08899822 4.92391901 3.05544612 7 7 C6.01 7.495 6.01 7.495 5 8 C2.525 4.04 2.525 4.04 0 0 Z " fill="#061A2C" transform="translate(287,126)"/>
</svg>
