<svg width="560" height="340" viewBox="0 0 560 340" fill="none" xmlns="http://www.w3.org/2000/svg">
  <defs>
    <linearGradient id="bg" x1="0" y1="0" x2="0" y2="1">
      <stop offset="0" stop-color="#0D1A3F" />
      <stop offset="1" stop-color="#3B82F6" stop-opacity="0.9" />
    </linearGradient>
    <linearGradient id="bolt" x1="0" y1="0" x2="1" y2="1">
      <stop offset="0" stop-color="#8B5CF6" />
      <stop offset="1" stop-color="#22D3EE" />
    </linearGradient>
    <filter id="glow" x="-50%" y="-50%" width="200%" height="200%">
      <feGaussianBlur stdDeviation="12" result="blur" />
      <feMerge>
        <feMergeNode in="blur" />
        <feMergeNode in="SourceGraphic" />
      </feMerge>
    </filter>
  </defs>
  <rect width="560" height="340" rx="22" fill="url(#bg)" />
  <circle cx="170" cy="180" r="110" fill="#0B1433" stroke="#6EE7FF" stroke-width="3" opacity="0.85" />
  <circle cx="170" cy="180" r="80" fill="#111827" stroke="#a5b4fc" stroke-width="2" opacity="0.85" />
  <rect x="120" y="130" width="100" height="120" rx="24" fill="#0f172a" stroke="#7c3aed" stroke-width="3" />
  <rect x="135" y="142" width="70" height="60" rx="16" fill="#111827" stroke="#22d3ee" stroke-width="2" />
  <circle cx="160" cy="172" r="10" fill="#22d3ee" />
  <circle cx="185" cy="172" r="10" fill="#a78bfa" />
  <rect x="148" y="204" width="64" height="26" rx="12" fill="#1f2937" stroke="#22d3ee" stroke-width="2" />
  <rect x="162" y="212" width="36" height="10" rx="5" fill="#22d3ee" />
  <path d="M170 120 L170 110" stroke="#22d3ee" stroke-width="6" stroke-linecap="round" />
  <circle cx="170" cy="105" r="10" fill="#a78bfa" stroke="#22d3ee" stroke-width="3" />
  <path d="M118 156 L105 146" stroke="#22d3ee" stroke-width="5" stroke-linecap="round" />
  <path d="M222 156 L235 146" stroke="#22d3ee" stroke-width="5" stroke-linecap="round" />
  <path d="M98 210 L82 214" stroke="#22d3ee" stroke-width="5" stroke-linecap="round" />
  <path d="M242 210 L258 214" stroke="#22d3ee" stroke-width="5" stroke-linecap="round" />
  <path d="M330 132 L298 190 L344 186 L312 244" stroke="url(#bolt)" stroke-width="12" stroke-linecap="round" stroke-linejoin="round" fill="none" filter="url(#glow)" />
  <circle cx="320" cy="120" r="10" fill="#38bdf8" opacity="0.9" />
  <circle cx="310" cy="256" r="10" fill="#a78bfa" opacity="0.9" />
  <text x="330" y="260" fill="#e2e8f0" font-size="22" font-family="'Inter', system-ui" font-weight="700">Bjorn AI</text>
</svg>
