<svg width="560" height="340" viewBox="0 0 560 340" fill="none" xmlns="http://www.w3.org/2000/svg">
  <defs>
    <linearGradient id="bg" x1="0" y1="0" x2="0" y2="1">
      <stop offset="0" stop-color="#0D1A3F" />
      <stop offset="1" stop-color="#3B82F6" stop-opacity="0.9" />
    </linearGradient>
    <linearGradient id="accent" x1="0" y1="0" x2="1" y2="1">
      <stop offset="0" stop-color="#8B5CF6" />
      <stop offset="1" stop-color="#22D3EE" />
    </linearGradient>
    <filter id="glow" x="-50%" y="-50%" width="200%" height="200%">
      <feGaussianBlur stdDeviation="14" result="blur" />
      <feMerge>
        <feMergeNode in="blur" />
        <feMergeNode in="SourceGraphic" />
      </feMerge>
    </filter>
  </defs>
  <rect width="560" height="340" rx="22" fill="url(#bg)" />
  <ellipse cx="170" cy="230" rx="120" ry="18" fill="#0b1433" opacity="0.5" />
  <circle cx="180" cy="150" r="112" fill="#0B1433" stroke="#6EE7FF" stroke-width="3" opacity="0.9" />
  <circle cx="180" cy="150" r="82" fill="#0f172a" stroke="#a5b4fc" stroke-width="2" opacity="0.9" />

  <!-- torso and fur cloak -->
  <path d="M108 210 C118 184 140 166 180 166 C220 166 242 184 252 210 L252 255 C252 270 236 278 180 278 C124 278 108 270 108 255 Z" fill="#1f2937" stroke="#7c3aed" stroke-width="3" />
  <path d="M118 202 C140 230 130 260 150 272 L122 268 C100 260 92 232 108 210 Z" fill="#2d3748" opacity="0.9" />
  <path d="M242 202 C220 230 230 260 210 272 L238 268 C260 260 268 232 252 210 Z" fill="#2d3748" opacity="0.9" />
  <path d="M132 214 C142 236 150 252 150 272" stroke="#a78bfa" stroke-width="3" stroke-linecap="round" />
  <path d="M228 214 C218 236 210 252 210 272" stroke="#22d3ee" stroke-width="3" stroke-linecap="round" />

  <!-- head and beard -->
  <path d="M170 84 C186 84 206 96 206 130 C206 150 202 168 194 176 C184 186 176 190 170 190 C164 190 156 186 146 176 C138 168 134 150 134 130 C134 96 154 84 170 84 Z" fill="#e0c7a6" stroke="#f0d9b5" stroke-width="3" />
  <path d="M170 104 C162 120 158 132 158 150 C158 168 160 188 170 206 C180 188 182 168 182 150 C182 132 178 120 170 104 Z" fill="#d6b48c" />
  <path d="M170 102 C168 96 172 88 178 84" stroke="#c084fc" stroke-width="4" stroke-linecap="round" />
  <path d="M166 92 C156 88 152 92 150 104" stroke="#8b5cf6" stroke-width="4" stroke-linecap="round" />
  <path d="M158 120 C164 128 176 128 182 120" stroke="#0f172a" stroke-width="5" stroke-linecap="round" />
  <circle cx="158" cy="134" r="5" fill="#0f172a" />
  <circle cx="182" cy="134" r="5" fill="#0f172a" />
  <path d="M170 148 C162 152 164 162 170 166 C176 162 178 152 170 148 Z" fill="#fef9c3" stroke="#f1c232" stroke-width="2" />
  <path d="M150 162 C152 198 160 222 170 236 C180 222 188 198 190 162" stroke="#d6b48c" stroke-width="14" stroke-linecap="round" stroke-linejoin="round" />
  <path d="M150 166 C154 210 160 234 170 246 C180 234 186 210 190 166" stroke="#f4d8b3" stroke-width="6" stroke-linecap="round" stroke-linejoin="round" />
  <path d="M166 88 L170 78 L176 86" stroke="#e5e7eb" stroke-width="5" stroke-linecap="round" />

  <!-- lightning and circuitry -->
  <path d="M322 126 L292 188 L336 182 L306 242" stroke="url(#accent)" stroke-width="13" stroke-linecap="round" stroke-linejoin="round" fill="none" filter="url(#glow)" />
  <circle cx="316" cy="112" r="12" fill="#38bdf8" opacity="0.95" />
  <circle cx="306" cy="256" r="12" fill="#a78bfa" opacity="0.95" />
  <path d="M270 86 C310 70 340 92 356 126" stroke="#22d3ee" stroke-width="3" stroke-dasharray="6 10" />
  <path d="M276 214 C310 230 332 222 350 200" stroke="#8b5cf6" stroke-width="3" stroke-dasharray="10 12" />
  <rect x="112" y="120" width="136" height="148" rx="32" stroke="#22d3ee" stroke-width="3" opacity="0.35" />
  <text x="330" y="260" fill="#f8fafc" font-size="22" font-family="'Inter', system-ui" font-weight="700">Bjorn AI</text>
</svg>
