<?xml version="1.0" standalone="no"?>
<!DOCTYPE svg PUBLIC "-//W3C//DTD SVG 20010904//EN"
 "http://www.w3.org/TR/2001/REC-SVG-20010904/DTD/svg10.dtd">
<svg version="1.0" xmlns="http://www.w3.org/2000/svg"
 width="262.000000pt" height="389.000000pt" viewBox="0 0 262.000000 389.000000"
 preserveAspectRatio="xMidYMid meet">

<g transform="translate(0.000000,389.000000) scale(0.100000,-0.100000)"
fill="#000000" stroke="none">
<path d="M424 3816 c-41 -18 -125 -115 -159 -184 -39 -79 -55 -145 -55 -227 0
-192 100 -351 281 -445 l77 -40 4 -78 c2 -58 -1 -86 -14 -112 -10 -20 -19 -71
-23 -118 -3 -46 -12 -96 -19 -111 -8 -15 -47 -65 -86 -111 -109 -129 -124
-160 -125 -250 0 -41 5 -84 12 -95 10 -18 13 -16 28 21 9 23 28 50 43 61 l28
20 -23 -66 c-38 -112 -24 -219 40 -303 l33 -43 -50 -40 c-27 -22 -83 -54 -123
-71 -100 -44 -217 -111 -248 -144 l-25 -26 56 -93 c70 -118 117 -177 223 -274
260 -239 584 -358 981 -360 275 -2 469 42 703 159 251 125 428 293 565 536
l32 56 -39 31 c-52 41 -190 113 -271 142 -36 12 -76 32 -90 44 -25 23 -129 94
-163 112 -17 9 -16 11 10 28 69 45 125 101 149 151 23 48 26 62 22 141 -4 99
-22 146 -94 248 -68 98 -72 110 -66 206 4 73 1 93 -17 134 -19 43 -21 60 -15
132 4 46 11 83 17 83 5 0 45 21 89 48 131 77 207 176 243 317 38 150 -8 326
-119 451 -51 58 -111 93 -129 75 -8 -8 -6 -27 8 -69 14 -39 20 -84 20 -142 0
-72 -5 -94 -29 -147 -45 -99 -138 -173 -216 -173 -26 0 -45 14 -109 79 -91 91
-189 153 -298 187 -43 14 -83 33 -90 44 -12 18 -26 20 -110 20 -83 0 -95 -2
-100 -18 -3 -13 -27 -26 -76 -41 -130 -41 -268 -133 -335 -222 -32 -44 -40
-49 -75 -49 -45 0 -104 28 -156 75 -85 77 -120 234 -83 370 17 67 19 95 4 95
-4 -1 -21 -7 -38 -14z m-29 -346 c32 -98 118 -194 204 -229 17 -8 31 -17 31
-21 0 -5 -10 -34 -22 -65 -21 -54 -22 -56 -52 -49 -17 4 -40 13 -51 20 -11 8
-23 14 -27 14 -16 0 23 -48 57 -72 22 -15 35 -31 35 -45 0 -28 0 -28 -60 2
-99 50 -202 181 -225 285 -21 96 5 245 58 325 l22 34 7 -76 c4 -42 14 -97 23
-123z m1861 126 c83 -159 58 -334 -68 -471 -42 -46 -157 -125 -181 -125 -4 0
-7 11 -7 25 0 14 4 25 9 25 14 0 70 49 81 71 10 17 8 17 -32 -1 -63 -29 -74
-26 -90 23 -8 23 -18 50 -22 59 -6 12 1 21 26 34 143 73 216 186 233 363 8 79
8 79 51 -3z m-686 -710 c131 -19 188 -35 195 -55 3 -9 9 -77 12 -151 6 -150 9
-140 -73 -270 -32 -50 -34 -60 -34 -137 0 -46 -3 -83 -6 -83 -3 0 -27 21 -54
48 -47 46 -86 71 -142 91 -23 9 -28 17 -28 44 0 23 -8 41 -24 56 -28 27 -52
20 -36 -9 5 -10 10 -30 10 -44 0 -23 -4 -26 -32 -26 -17 0 -47 -5 -65 -12 -27
-10 -38 -10 -53 0 -11 7 -36 12 -55 12 -32 0 -35 3 -35 28 0 38 14 56 39 49
17 -4 21 0 25 27 10 60 11 346 2 346 -5 0 -17 -7 -26 -15 -14 -12 -23 -12 -80
6 -142 44 -251 33 -266 -27 -8 -32 -3 -37 30 -24 33 12 106 13 124 1 9 -6 2
-10 -25 -15 -44 -7 -78 -30 -69 -45 4 -6 19 -8 35 -5 20 4 38 -2 65 -20 42
-28 66 -24 86 15 9 17 14 18 26 8 9 -7 13 -21 11 -31 -4 -15 -1 -17 20 -12
l26 7 -5 -81 c-4 -73 -8 -84 -36 -117 -33 -36 -36 -44 -32 -82 1 -17 -9 -27
-41 -44 -24 -12 -69 -46 -101 -77 l-58 -55 0 72 c0 82 -15 126 -66 187 -58 72
-67 105 -61 219 11 167 12 172 66 189 41 14 123 29 206 39 82 10 439 5 525 -7z
m-841 -144 l1 -33 -40 23 c-22 13 -40 25 -40 28 0 3 15 15 33 28 29 20 32 21
39 5 3 -10 7 -33 7 -51z m1148 42 c18 -14 33 -29 33 -34 0 -7 -64 -50 -76 -50
-2 0 -4 25 -4 55 0 30 3 55 7 55 3 0 21 -11 40 -26z m-1192 -122 c9 -23 -2
-26 -30 -8 -20 13 -25 14 -25 2 0 -7 8 -24 18 -36 15 -19 17 -29 8 -61 -7 -26
-6 -45 1 -61 10 -22 11 -21 22 20 7 23 14 42 16 42 3 0 5 -46 5 -102 l0 -103
-20 25 c-11 14 -34 53 -52 88 -26 53 -31 75 -32 136 0 48 4 79 13 90 12 14 16
14 42 -1 16 -9 31 -23 34 -31z m1285 29 c5 -11 10 -49 10 -84 0 -54 -6 -76
-35 -133 -19 -38 -49 -85 -65 -104 l-30 -34 0 119 c1 107 2 118 15 101 8 -11
18 -35 21 -54 l7 -35 13 24 c16 29 18 64 4 88 -7 14 -5 23 10 36 11 10 20 27
20 38 0 19 -1 19 -19 3 -36 -33 -48 -12 -14 22 37 37 48 39 63 13z m-1400
-295 c0 -51 -56 -113 -165 -182 -28 -18 -29 -18 -22 0 12 30 170 225 179 220
4 -3 8 -20 8 -38z m259 -40 c17 -33 21 -62 21 -133 0 -50 -3 -99 -6 -108 -12
-31 -24 6 -25 80 l-1 70 -13 -70 c-7 -38 -20 -87 -29 -107 -18 -42 -23 -223
-6 -233 6 -4 10 -56 10 -123 l-1 -117 -34 37 -35 38 0 200 c0 196 1 202 30
287 22 65 30 104 30 158 0 39 3 75 7 78 10 11 30 -11 52 -57z m1225 -27 c88
-134 103 -216 56 -314 l-18 -40 -1 51 c-1 65 -18 112 -71 198 -59 97 -64 114
-49 159 7 20 15 37 18 37 3 0 33 -41 65 -91z m-264 11 c0 -42 11 -91 35 -164
l35 -105 0 -187 c0 -184 0 -186 -25 -216 l-25 -30 0 199 c-1 173 -3 205 -21
253 -11 30 -26 78 -33 105 l-14 50 -1 -62 c-1 -36 -5 -63 -11 -63 -19 0 -22
29 -15 115 5 66 12 92 33 124 15 23 30 41 34 41 5 0 8 -27 8 -60z m-1146 -42
c13 -51 4 -75 -67 -170 -37 -50 -69 -105 -77 -132 -12 -45 -10 -137 5 -181 6
-17 4 -17 -14 4 -12 13 -28 48 -37 79 -31 106 -2 202 108 364 29 42 58 75 63
74 6 -1 14 -18 19 -38z m1330 -118 c37 -77 41 -92 41 -160 0 -62 -4 -83 -25
-119 -14 -24 -36 -51 -49 -60 -23 -15 -23 -14 -17 6 29 93 26 182 -12 279 -27
70 -34 117 -21 150 10 28 11 29 26 9 8 -11 34 -58 57 -105z m-744 96 c28 -10
43 -10 79 1 57 17 86 16 151 -3 45 -13 68 -31 149 -111 53 -52 86 -89 74 -83
-15 7 -23 7 -23 1 0 -15 -50 6 -78 32 l-23 21 -6 -22 c-7 -28 -14 -28 -44 4
-42 46 -138 83 -226 88 -88 4 -152 -18 -223 -74 -21 -17 -40 -25 -42 -20 -2 7
-23 0 -51 -15 -26 -15 -47 -22 -47 -16 0 9 -6 9 -21 0 -29 -15 -20 -1 49 78
97 112 191 152 282 119z m-574 -157 c-9 -29 -16 -74 -16 -99 0 -42 -34 -164
-58 -206 -16 -29 -35 49 -30 131 3 70 6 77 58 153 30 44 56 79 58 77 2 -2 -4
-27 -12 -56z m738 17 c80 -33 104 -105 46 -138 -22 -13 -30 -24 -30 -46 0 -32
16 -52 41 -52 9 0 28 -18 43 -40 25 -38 26 -46 26 -167 0 -74 -5 -140 -12
-160 -9 -24 -9 -41 -2 -61 6 -15 8 -57 6 -94 l-4 -67 -74 -56 c-40 -30 -76
-55 -79 -55 -3 0 -5 19 -5 42 0 38 6 48 54 98 l55 55 7 203 7 202 -43 51 -42
50 4 90 4 89 -121 0 -121 0 -1 -62 c0 -35 -4 -92 -8 -128 -7 -64 -6 -65 30
-107 l36 -43 -5 -182 c-7 -239 -7 -222 0 -303 l5 -70 -25 30 -25 30 -1 237 0
236 -30 25 -30 26 0 159 c0 154 1 159 24 181 13 12 36 26 52 31 47 14 181 11
218 -4z m-314 -411 l30 -29 0 -208 c0 -114 -4 -208 -8 -208 -27 0 -32 30 -32
187 l0 164 -35 20 -35 21 0 182 c0 180 0 183 23 193 l22 10 3 -152 2 -152 30
-28z m461 315 c15 -9 19 -22 19 -66 0 -39 7 -68 25 -102 27 -51 33 -114 13
-157 -23 -52 31 -102 81 -75 31 16 29 74 -3 95 -19 13 -24 25 -24 58 0 23 -9
62 -21 87 -11 25 -21 66 -21 93 0 44 2 47 25 47 24 0 25 -3 25 -53 0 -39 6
-61 24 -88 13 -19 26 -49 28 -65 2 -19 11 -32 27 -39 23 -10 23 -12 18 -117
-6 -109 -12 -132 -53 -181 l-24 -29 0 51 c0 44 -3 51 -20 51 -18 0 -20 -7 -20
-67 -1 -60 -4 -72 -29 -102 l-28 -34 -12 46 c-12 42 -11 47 8 66 25 25 28 79
6 87 -12 5 -15 31 -15 144 0 128 -2 139 -24 173 -18 26 -26 56 -31 111 -4 42
-4 76 -1 76 4 0 16 -5 27 -10z m-586 -207 l0 -188 37 -20 38 -20 0 -85 c0 -77
-3 -89 -29 -128 -16 -24 -32 -43 -35 -43 -4 0 -38 37 -77 82 l-69 83 0 153 c0
121 3 161 16 185 20 39 11 76 -21 84 -22 5 -25 12 -25 50 l0 44 83 -5 82 -4 0
-188z m295 104 c0 -82 3 -97 25 -129 32 -47 47 -188 23 -216 -24 -27 -28 -50
-16 -77 16 -36 48 -43 70 -15 19 24 24 75 8 85 -6 3 -10 49 -10 101 0 91 -2
98 -30 138 -29 40 -31 47 -28 122 3 73 5 79 26 82 21 3 22 1 22 -75 0 -79 0
-79 40 -118 l40 -39 0 -186 0 -186 -55 -54 -55 -54 0 -82 c0 -87 -13 -110 -45
-78 -21 22 -20 123 3 163 16 30 16 32 0 62 -15 26 -18 58 -18 213 l0 182 -35
34 c-40 39 -42 56 -18 153 13 51 22 67 35 67 16 0 18 -11 18 -93z m510 13 c0
-66 -3 -80 -16 -80 -33 0 -62 141 -31 153 42 18 47 10 47 -73z m-280 5 c0 -8
-9 -15 -20 -15 -20 0 -26 11 -13 23 12 13 33 7 33 -8z m-665 -65 c3 -5 -1 -10
-9 -10 -9 0 -16 5 -16 10 0 6 4 10 9 10 6 0 13 -4 16 -10z m955 -65 c0 -8 -7
-15 -15 -15 -16 0 -20 12 -8 23 11 12 23 8 23 -8z m-110 -135 c0 -5 -7 -10
-15 -10 -8 0 -15 5 -15 10 0 6 7 10 15 10 8 0 15 -4 15 -10z m-330 -145 c0 -8
-4 -15 -10 -15 -5 0 -10 7 -10 15 0 8 5 15 10 15 6 0 10 -7 10 -15z m240 -40
c0 -8 -6 -15 -14 -15 -17 0 -28 14 -19 24 12 12 33 6 33 -9z m-490 -336 c41
-25 99 -60 129 -78 l55 -32 42 16 c59 22 190 102 271 165 105 82 98 77 88 60
-43 -74 -173 -189 -272 -239 -39 -19 -47 -31 -99 -139 l-56 -117 -29 75 c-16
41 -37 99 -46 128 -16 50 -21 55 -92 96 -180 105 -267 197 -295 311 -6 25 11
12 111 -86 73 -71 146 -132 193 -160z m165 181 c3 -5 -1 -10 -9 -10 -9 0 -16
5 -16 10 0 6 4 10 9 10 6 0 13 -4 16 -10z"/>
<path d="M1456 2796 c-77 -20 -90 -21 -103 -8 -26 27 -32 -2 -16 -91 16 -84
17 -86 35 -70 15 13 23 14 43 5 24 -11 25 -10 19 14 -4 17 -2 29 7 35 20 13
29 11 29 -5 0 -16 26 -46 40 -46 5 0 22 11 39 26 25 21 36 24 66 18 27 -5 35
-3 35 9 0 15 -66 47 -96 47 -8 0 -12 5 -9 10 9 15 106 12 138 -4 26 -14 27
-14 27 7 -1 76 -92 95 -254 53z"/>
<path d="M866 1958 c4 -13 10 -117 13 -233 5 -184 8 -213 25 -238 29 -43 52
-51 76 -27 38 38 21 85 -29 78 l-31 -5 0 212 0 212 -25 11 c-36 16 -39 15 -29
-10z m98 -469 c-3 -5 -10 -7 -15 -3 -5 3 -7 10 -3 15 3 5 10 7 15 3 5 -3 7
-10 3 -15z"/>
<path d="M1137 666 c-119 -32 -178 -173 -143 -342 26 -131 89 -184 213 -184
166 1 241 101 231 304 -3 55 -11 103 -21 122 -26 50 -80 91 -137 103 -63 14
-82 13 -143 -3z m148 -110 c58 -38 61 -240 4 -292 -27 -24 -103 -30 -133 -11
-38 25 -60 95 -54 174 6 80 22 119 57 139 31 17 92 12 126 -10z"/>
<path d="M245 405 l0 -267 135 4 c108 3 144 8 175 24 54 26 77 72 72 143 -3
45 -9 59 -34 82 l-31 27 25 25 c31 30 42 102 23 147 -7 17 -27 41 -44 53 -28
20 -45 22 -176 25 l-145 4 0 -267z m255 146 c27 -52 -2 -89 -79 -98 l-51 -6 0
62 0 61 60 0 c48 0 61 -4 70 -19z m-12 -197 c15 -10 22 -25 22 -49 0 -44 -29
-65 -92 -65 l-48 0 0 65 0 65 48 0 c27 0 57 -7 70 -16z"/>
<path d="M802 478 c4 -192 4 -193 -20 -217 -20 -20 -30 -23 -67 -18 l-44 6 -7
-45 c-5 -34 -3 -48 7 -55 22 -14 136 -10 174 5 63 27 70 54 73 299 l3 217 -61
0 -62 0 4 -192z"/>
<path d="M1500 651 c6 -12 10 -114 10 -260 l0 -241 55 0 55 0 0 90 0 90 28 0
c24 -1 31 -9 67 -90 l40 -89 68 -1 68 0 -51 95 -51 95 39 37 c44 42 60 100 48
168 -17 91 -91 125 -268 125 -114 0 -118 -1 -108 -19z m244 -103 c47 -67 -10
-138 -96 -121 -27 5 -28 7 -28 74 l0 69 54 0 c45 0 58 -4 70 -22z"/>
<path d="M1936 648 c4 -13 9 -131 10 -263 l3 -240 51 -3 50 -3 0 161 c0 89 4
159 9 156 4 -3 46 -73 91 -155 87 -155 92 -161 158 -161 l32 0 0 265 0 265
-55 0 -54 0 -3 -152 -3 -153 -90 153 -89 152 -59 0 c-57 0 -59 -1 -51 -22z"/>
</g>
</svg>
